<?xml version="1.0" standalone="no"?>
<!DOCTYPE svg PUBLIC "-//W3C//DTD SVG 20010904//EN"
 "http://www.w3.org/TR/2001/REC-SVG-20010904/DTD/svg10.dtd">
<svg version="1.0" xmlns="http://www.w3.org/2000/svg"
 width="500.000000pt" height="500.000000pt" viewBox="0 0 500.000000 500.000000"
 preserveAspectRatio="xMidYMid meet">

<g transform="translate(0.000000,500.000000) scale(0.100000,-0.100000)"
fill="#000000" stroke="none">
<path d="M1780 4815 c-113 -46 -213 -87 -224 -92 -16 -7 -19 -21 -20 -103 l-1
-95 -75 3 -75 4 -33 -41 c-46 -57 -52 -80 -52 -197 l0 -104 51 -65 c43 -55 56
-65 82 -65 18 0 49 -3 70 -6 l37 -7 0 -102 c0 -95 2 -103 24 -125 20 -18 24
-29 20 -54 -8 -46 -173 -409 -192 -421 -44 -28 -52 -44 -46 -89 5 -31 3 -46
-7 -52 -8 -5 -90 -34 -184 -66 -191 -65 -354 -127 -372 -141 -10 -7 -13 -126
-13 -533 l0 -524 -150 0 -150 0 -19 -31 -19 -31 -13 23 c-6 13 -17 27 -23 31
-6 4 -73 8 -148 8 -144 0 -158 -4 -173 -50 -3 -11 -15 -20 -25 -20 -10 0 -26
-7 -34 -16 -14 -13 -16 -52 -16 -277 l0 -262 71 -78 71 -77 138 0 c130 0 140
1 154 21 l14 21 11 -21 c11 -20 20 -21 139 -21 70 0 142 4 160 9 32 10 32 9
32 -25 0 -40 12 -48 242 -178 75 -42 149 -91 163 -108 20 -24 38 -33 77 -39
37 -6 108 -39 247 -116 204 -111 476 -258 571 -307 l55 -29 453 227 453 227
112 -2 c109 -1 111 -1 134 25 15 18 23 40 23 64 l0 37 163 80 c146 72 162 83
165 108 l3 27 98 0 c76 0 101 3 111 15 12 14 15 14 30 0 14 -13 54 -15 246
-15 l229 1 84 91 84 91 -5 124 c-5 117 -6 125 -32 152 l-26 28 26 12 26 12 -3
119 c-3 69 -9 124 -15 130 -13 13 -334 25 -350 13 -5 -4 -18 -19 -27 -32 l-16
-24 -12 26 c-7 15 -17 28 -23 29 -6 0 -15 2 -21 3 -5 2 -99 3 -207 4 l-198 1
0 476 0 476 -22 19 c-40 34 -107 65 -363 166 -109 43 -175 72 -175 78 0 2 -29
103 -65 224 -36 121 -65 225 -65 231 0 5 16 10 35 10 38 0 40 3 50 63 6 36 7
37 50 37 l44 0 3 43 3 42 46 3 c49 3 59 14 59 69 0 19 6 22 48 25 l47 3 5 45
c5 44 6 45 45 48 39 3 59 14 61 32 1 6 2 24 3 40 1 27 4 30 35 30 56 0 66 8
66 52 0 32 3 39 18 36 15 -3 17 -19 20 -143 3 -148 5 -155 55 -155 25 0 27 -3
27 -39 l0 -39 53 -4 c82 -6 101 2 105 45 3 34 6 36 40 39 l37 3 3 215 c3 237
2 240 -60 240 -25 0 -28 3 -28 33 0 26 6 36 25 45 14 6 25 19 25 28 0 40 -35
194 -44 197 -18 7 -149 -14 -183 -29 -47 -21 -52 -18 -55 38 l-3 53 -195 27
c-107 15 -214 27 -236 28 -38 0 -42 -2 -47 -30 -6 -27 -10 -30 -47 -30 -44 0
-43 1 -55 -93 -7 -50 -7 -49 48 -61 24 -6 27 -11 27 -46 0 -28 5 -40 18 -44
14 -4 101 -19 265 -43 38 -6 38 -6 35 -47 -3 -40 -4 -41 -43 -46 -38 -5 -40
-7 -45 -45 -5 -40 -5 -40 -52 -43 l-47 -3 -7 -45 -6 -44 -43 0 c-46 0 -55 -12
-55 -70 0 -24 -3 -25 -39 -22 -43 4 -52 -4 -61 -58 -5 -33 -8 -35 -46 -38 -38
-3 -42 -6 -53 -43 -10 -33 -16 -39 -40 -39 -20 0 -34 8 -46 27 -11 17 -14 28
-7 31 12 4 85 53 122 81 25 20 25 23 28 184 l4 164 -44 54 c-24 29 -55 56 -68
59 -25 6 -25 8 -28 118 -2 78 -6 114 -15 117 -7 2 -24 6 -39 9 -24 5 -28 12
-28 39 0 50 -11 58 -96 68 -43 5 -113 14 -154 19 -126 17 -463 50 -490 49 -14
-1 -117 -39 -230 -84z m234 0 c-4 -8 -8 -15 -10 -15 -2 0 -4 7 -4 15 0 8 4 15
10 15 5 0 7 -7 4 -15z m40 -1 c-19 -15 -19 -16 1 -9 11 4 29 9 40 11 17 4 17
3 -2 -7 -13 -7 -23 -16 -23 -21 0 -15 -33 9 -36 26 -1 10 5 16 19 16 20 0 21
0 1 -16z m463 -40 c-3 -3 -12 -4 -19 -1 -8 3 -5 6 6 6 11 1 17 -2 13 -5z m113
-8 c0 -2 -7 -7 -16 -10 -8 -3 -12 -2 -9 4 6 10 25 14 25 6z m-515 -36 c3 -5 1
-10 -4 -10 -6 0 -11 5 -11 10 0 6 2 10 4 10 3 0 8 -4 11 -10z m-277 -32 c-3
-13 -28 -37 -40 -38 -9 0 -4 28 7 37 4 4 5 2 1 -4 -4 -7 -2 -13 3 -13 6 0 11
7 11 15 0 8 5 15 10 15 6 0 9 -6 8 -12z m26 -14 c-2 -23 0 -25 24 -20 23 5 24
5 9 -5 -10 -6 -26 -7 -35 -3 -9 4 -21 6 -25 5 -5 -1 -5 4 0 11 4 7 8 16 9 21
3 15 4 17 13 17 4 0 7 -12 5 -26z m31 6 c3 -5 1 -10 -4 -10 -6 0 -11 5 -11 10
0 6 2 10 4 10 3 0 8 -4 11 -10z m57 -2 c-14 -7 -26 -8 -32 -2 -5 5 4 10 23 11
30 1 31 1 9 -9z m100 -20 c-9 -9 -9 -15 1 -27 10 -14 10 -14 -5 -3 -17 14 -14
42 5 42 8 0 7 -4 -1 -12z m73 -37 c-3 -2 -11 1 -17 7 -7 7 -16 8 -23 2 -7 -6
-11 -3 -11 10 0 18 2 18 28 2 15 -9 25 -18 23 -21z m82 23 c-3 -3 -12 -4 -19
-1 -8 3 -5 6 6 6 11 1 17 -2 13 -5z m1063 -14 c25 -4 91 -14 148 -21 l103 -13
-3 -45 c-2 -24 -8 -46 -15 -48 -7 -3 -10 4 -7 19 5 22 5 22 -10 -2 -14 -22
-15 -23 -16 -5 0 16 -2 17 -9 5 -12 -18 -3 -33 15 -26 9 4 18 -4 24 -20 13
-32 13 -44 0 -44 -5 0 -7 7 -4 15 5 11 2 13 -10 9 -9 -3 -13 -11 -9 -18 4 -7
1 -7 -9 1 -8 7 -17 11 -20 8 -3 -3 -11 1 -18 10 -11 13 -10 14 4 9 9 -3 16 -1
16 5 0 6 -6 11 -12 11 -10 0 -9 3 1 9 10 6 10 10 1 16 -9 6 -9 10 1 16 10 6 8
9 -8 10 -13 1 -26 2 -30 3 -5 1 -36 6 -70 10 -35 4 -61 11 -59 14 2 4 -26 8
-62 9 -36 2 -67 5 -70 8 -2 2 -1 20 2 39 7 38 7 38 126 16z m-930 -19 c0 -15
-32 -23 -44 -11 -8 8 -6 9 8 4 13 -5 17 -4 12 4 -4 7 -1 12 8 12 9 0 16 -4 16
-9z m-620 -52 c35 -5 68 -16 72 -22 6 -9 8 -9 8 0 0 7 10 12 23 11 18 -2 22
-9 24 -42 2 -21 -3 -46 -10 -55 -8 -10 -8 -13 0 -8 6 4 14 4 17 -1 3 -5 30
-10 61 -11 60 -2 59 -3 55 65 -1 28 1 31 27 29 15 -1 43 -3 61 -3 18 -1 31 -5
29 -9 -3 -5 23 -8 56 -9 34 0 82 -3 107 -6 25 -3 50 -6 57 -7 8 -1 13 -34 15
-106 l3 -104 -35 4 c-41 6 -365 39 -530 55 -160 15 -160 15 -156 54 2 17 4 41
5 54 1 15 5 21 14 16 6 -4 5 1 -3 10 -10 10 -14 29 -12 56 5 46 7 46 112 29z
m1814 -64 c-4 -8 -1 -15 5 -15 6 0 11 8 11 17 0 9 3 14 6 10 4 -3 3 -18 0 -34
-6 -21 -9 -24 -17 -12 -7 11 -9 11 -9 -4 0 -11 5 -17 13 -14 6 2 21 1 32 -3
16 -6 21 -4 22 11 1 10 -3 19 -8 19 -6 0 -7 -4 -4 -10 3 -5 2 -10 -4 -10 -15
0 -23 18 -11 25 6 4 8 11 5 16 -4 5 2 9 12 9 15 0 20 -9 22 -42 3 -50 4 -52
39 -54 15 -1 33 -2 40 -3 7 0 12 -16 12 -37 0 -33 -2 -35 -17 -23 -10 7 -15 9
-11 5 4 -5 2 -16 -5 -25 -10 -14 -10 -14 5 -3 9 7 19 9 22 4 3 -5 25 -13 48
-16 l43 -6 -2 -73 c0 -39 -2 -74 -3 -77 -1 -3 -3 -13 -5 -22 -2 -10 -10 -25
-19 -34 -14 -14 -19 -14 -33 -2 -10 7 -14 8 -10 1 4 -6 3 -14 -3 -18 -6 -4 -9
7 -8 27 1 18 1 52 0 76 l-2 42 -45 0 -45 0 0 53 0 54 -46 -3 -45 -3 1 62 c0
34 -2 73 -4 87 -4 28 1 40 14 40 5 0 7 -7 4 -15z m-2004 -52 c2 -2 0 -7 -5
-11 -6 -4 -10 -16 -10 -27 0 -21 -22 -27 -42 -12 -9 6 -11 3 -8 -12 2 -12 0
-21 -6 -21 -14 0 -11 -100 4 -101 10 0 10 -2 0 -6 -7 -2 -13 -20 -13 -39 0
-31 3 -34 30 -34 32 0 37 -8 18 -30 -7 -8 -3 -6 10 4 l22 19 0 -31 c0 -29 -3
-32 -30 -32 -16 0 -30 5 -30 11 0 5 -4 7 -10 4 -5 -3 -10 -1 -10 4 0 6 -5 11
-11 11 -5 0 -7 -6 -4 -12 4 -7 -9 4 -29 26 l-36 38 0 108 c0 78 4 111 13 119
8 6 18 7 23 3 5 -4 6 -3 2 2 -17 20 13 33 65 28 28 -2 54 -6 57 -9z m1236 -26
c72 -11 84 -16 108 -44 27 -32 27 -32 6 -43 -27 -14 -60 -21 -59 -12 5 33 -28
48 -131 57 -36 3 -74 8 -85 10 -11 2 -24 4 -30 5 -20 2 61 39 85 39 14 -1 62
-6 106 -12z m-1136 -145 c0 -4 15 -6 34 -4 l33 4 3 -54 c3 -87 3 -92 -5 -113
-7 -17 -6 -18 6 -7 8 7 14 18 14 25 0 7 8 12 17 12 9 0 20 4 24 8 4 4 12 7 17
7 5 0 -11 -16 -36 -35 -26 -20 -49 -34 -52 -33 -4 2 -11 -5 -16 -14 -5 -9 -23
-27 -40 -39 -31 -22 -31 -22 -20 -1 7 14 8 23 1 27 -6 4 -8 10 -6 14 3 4 6 53
7 109 1 56 5 102 10 102 5 0 9 -4 9 -8z m1164 -10 c16 -18 15 -19 -14 -20 -17
0 -28 3 -25 8 3 5 1 11 -4 14 -5 4 -8 -1 -7 -10 2 -16 36 -42 36 -28 0 3 7 1
15 -6 8 -7 12 -16 9 -21 -3 -5 3 -9 12 -9 16 0 15 2 -2 22 -16 17 -16 20 -3
15 9 -3 22 0 29 6 10 9 11 9 5 -1 -10 -19 -13 -92 -3 -98 8 -5 5 -49 -7 -76
-5 -12 -3 -18 6 -18 7 0 3 -7 -9 -16 -21 -14 -48 -11 -38 5 3 4 -1 8 -9 8 -8
0 -15 -4 -15 -8 0 -5 -7 -5 -17 -2 -11 5 -14 3 -9 -6 5 -7 17 -11 27 -8 23 6
36 -11 15 -19 -8 -3 -31 6 -51 21 -30 23 -37 25 -51 14 -22 -18 -44 -20 -37
-3 3 8 13 14 22 14 11 0 17 8 17 25 0 14 -4 25 -8 25 -4 0 -8 -5 -8 -11 0 -5
-4 -7 -10 -4 -5 3 -10 10 -10 16 0 12 37 12 45 -1 4 -7 12 -7 24 0 10 5 21 6
25 3 10 -11 7 -33 -5 -30 -6 1 -13 -6 -14 -15 -4 -22 2 -23 22 -3 8 8 20 12
26 9 8 -5 8 -2 0 7 -17 18 -17 34 0 20 8 -6 18 -7 22 -3 5 4 6 0 2 -10 -6 -17
15 -20 30 -3 4 4 2 5 -4 1 -17 -9 -17 6 -1 22 9 9 9 15 3 20 -6 4 -10 17 -9
30 1 12 -3 25 -9 29 -6 3 -7 1 -3 -5 9 -14 -30 -35 -52 -28 -18 6 -27 56 -10
56 6 0 4 8 -3 18 -13 15 -12 16 4 3 14 -11 15 -17 5 -30 -9 -13 -8 -12 7 1 18
17 18 18 -3 41 -12 13 -22 31 -22 40 0 23 42 22 64 -1z m39 -9 c-3 -7 -6 -13
-8 -13 -2 0 -5 6 -8 13 -3 8 1 14 8 14 7 0 11 -6 8 -14z m-893 -22 c0 -4 -11
-7 -25 -5 -17 1 -29 -4 -36 -18 -15 -27 -1 -38 17 -13 14 19 14 19 11 -5 -3
-17 -10 -24 -21 -22 -9 2 -16 -4 -16 -13 0 -12 7 -14 31 -10 19 4 28 2 24 -5
-3 -6 4 -10 17 -11 33 0 111 -9 126 -15 8 -2 10 -9 6 -16 -5 -9 -2 -8 9 1 10
8 20 11 24 7 3 -3 1 -6 -6 -6 -7 0 -10 -4 -7 -9 4 -5 -5 -8 -19 -6 -25 2 -34
-9 -15 -20 6 -3 10 -12 9 -18 0 -9 -2 -9 -5 0 -3 7 -12 9 -20 6 -12 -4 -12 -8
-2 -22 12 -14 11 -15 -5 -2 -17 13 -17 16 -3 26 25 19 6 26 -20 8 -16 -10 -36
-14 -59 -10 -19 3 -37 1 -40 -4 -4 -5 -12 -9 -18 -9 -8 0 -8 3 2 9 9 6 7 9
-10 9 -13 0 -46 5 -72 10 l-48 10 3 -52 c3 -50 4 -51 36 -54 23 -2 32 1 32 12
0 10 6 13 15 10 8 -4 15 -1 15 5 0 6 -4 11 -10 11 -5 0 -10 6 -10 13 1 6 9 1
20 -12 22 -26 17 -46 -9 -36 -11 4 -13 3 -5 -5 6 -6 40 -13 75 -16 52 -5 73
-3 105 12 21 10 44 19 49 19 6 1 9 6 8 12 -1 6 6 9 19 5 14 -3 19 -1 15 6 -4
5 -1 13 5 16 10 4 9 9 -4 18 -15 11 -13 14 20 30 20 9 31 17 24 18 -7 0 -21
-4 -31 -9 -13 -7 -17 -5 -18 7 -1 14 7 16 48 14 l49 -4 0 56 c0 31 4 56 10 56
5 0 7 -6 4 -13 -3 -8 2 -14 11 -14 8 0 15 4 15 9 0 4 15 8 34 8 l34 0 -1 -110
c-1 -104 -2 -110 -21 -110 -12 0 -16 4 -11 8 16 12 16 32 -1 32 -9 0 -12 5 -8
12 4 7 3 8 -5 4 -6 -4 -9 -12 -6 -17 10 -15 -7 -10 -29 9 l-21 17 19 -23 c11
-12 26 -20 33 -17 8 2 12 1 9 -4 -3 -5 -17 -8 -30 -8 -14 0 -31 -7 -39 -14
-32 -31 -56 -47 -60 -43 -3 3 -8 0 -13 -7 -4 -8 -3 -10 4 -5 7 4 12 1 12 -8 0
-19 -5 -20 -31 -6 -17 10 -19 7 -19 -20 0 -16 4 -30 10 -30 5 0 7 6 4 14 -7
17 12 31 21 16 5 -8 12 -7 23 2 12 10 14 10 8 1 -4 -7 -3 -13 3 -13 6 0 15 9
20 19 9 16 8 18 -9 14 -11 -3 -20 -2 -20 2 0 13 28 34 35 27 5 -4 5 0 0 8 -5
8 -5 12 0 8 13 -13 16 -68 3 -68 -6 0 -4 -8 6 -19 15 -17 15 -19 -1 -32 -15
-12 -16 -12 -10 3 3 10 3 17 -1 17 -4 -1 -9 -1 -12 1 -3 1 -16 3 -29 6 -21 4
-22 3 -10 -13 12 -16 12 -17 -2 -5 -25 19 -45 -8 -29 -39 8 -14 8 -19 1 -15
-6 4 -11 2 -11 -4 0 -6 -14 -8 -37 -5 -184 26 -404 55 -410 55 -4 0 -9 25 -11
55 -3 55 19 111 39 99 5 -3 8 -2 7 3 -4 13 38 63 46 55 4 -3 4 1 1 10 -4 10 6
29 26 52 27 31 36 36 60 31 24 -5 29 -3 30 12 4 62 17 83 50 83 16 0 29 -4 29
-9z m47 -12 c-12 -7 -16 -17 -11 -31 4 -14 3 -18 -5 -13 -7 4 -18 1 -26 -5 -9
-7 -15 -8 -15 -2 0 5 7 13 16 16 8 3 12 10 9 16 -3 5 -1 10 5 10 6 0 8 5 5 10
-3 6 4 10 17 10 21 -1 21 -2 5 -11z m41 -14 c-3 -3 -9 2 -12 12 -6 14 -5 15 5
6 7 -7 10 -15 7 -18z m-6 -27 c-7 -7 -12 -21 -12 -32 0 -10 -3 -17 -6 -13 -10
10 5 57 18 57 9 0 9 -3 0 -12z m-282 -22 c0 -2 -7 -7 -16 -10 -8 -3 -12 -2 -9
4 6 10 25 14 25 6z m1059 -39 c-9 -7 -14 -19 -11 -27 5 -13 3 -13 -11 -1 -10
7 -17 10 -17 5 0 -5 -5 -1 -11 9 -6 10 -8 21 -5 24 3 4 6 1 6 -4 0 -14 26 -11
42 5 6 6 14 9 17 6 3 -3 -1 -11 -10 -17z m21 -21 c0 -3 -4 -8 -10 -11 -5 -3
-10 -1 -10 4 0 6 5 11 10 11 6 0 10 -2 10 -4z m937 -30 c12 1 21 -2 18 -6 -7
-12 -49 -4 -53 11 -2 9 0 10 5 4 4 -6 18 -10 30 -9z m18 -28 c2 -2 5 -27 7
-55 l4 -53 -43 0 -43 0 0 54 c0 35 5 56 13 59 13 4 56 1 62 -5z m-1884 -15
c13 -16 12 -17 -3 -4 -17 13 -22 21 -14 21 2 0 10 -8 17 -17z m827 -9 c14 -15
14 -16 -3 -13 -10 2 -20 10 -23 17 -5 17 6 15 26 -4z m-533 -164 c3 -5 1 -10
-4 -10 -6 0 -11 5 -11 10 0 6 2 10 4 10 3 0 8 -4 11 -10z m892 -6 c-3 -3 -12
-4 -19 -1 -8 3 -5 6 6 6 11 1 17 -2 13 -5z m-911 -26 c4 -7 3 -8 -4 -4 -7 4
-12 2 -12 -5 0 -7 -3 -10 -6 -6 -6 5 3 27 11 27 2 0 7 -5 11 -12z m-361 -69
c22 -5 55 -9 73 -9 18 0 31 -3 29 -7 -3 -5 29 -9 70 -10 41 0 80 -6 86 -12 8
-8 7 -11 -3 -11 -7 0 -10 -3 -7 -6 4 -4 13 -1 21 5 8 7 19 10 25 7 12 -8 12
-76 0 -76 -5 0 -9 5 -9 11 0 5 -5 7 -10 4 -16 -10 -203 16 -229 32 -13 8 -20
10 -17 4 9 -14 -4 -14 -97 0 l-73 11 -3 39 -2 40 53 -7 c29 -3 71 -10 93 -15z
m417 -223 c7 4 8 2 4 -4 -12 -20 -26 -13 -25 11 1 17 2 18 6 4 2 -9 9 -14 15
-11z m35 18 c-3 -4 -1 -16 5 -28 12 -21 12 -21 19 4 5 17 7 5 8 -38 1 -48 -2
-61 -11 -56 -10 6 -10 4 -2 -7 12 -16 12 -29 1 -46 -5 -7 -4 -13 2 -13 6 0 9
-23 9 -53 -1 -43 -5 -53 -20 -54 -10 -1 -18 3 -18 8 0 6 -5 7 -10 4 -8 -5 -7
-11 1 -21 6 -8 8 -14 4 -14 -5 0 0 -10 11 -22 19 -23 19 -23 -1 -7 -11 9 -27
19 -35 22 -11 4 -9 6 5 7 19 1 19 2 -4 20 -22 19 -47 18 -35 -1 3 -5 10 -7 15
-4 5 3 6 -1 3 -9 -3 -9 -12 -16 -19 -16 -7 0 -15 -10 -18 -22 -5 -17 -9 -19
-20 -10 -8 7 -16 10 -19 7 -3 -3 -4 7 -3 23 1 20 -3 28 -15 28 -9 0 -17 -6
-17 -13 0 -7 4 -10 9 -7 4 3 8 -9 8 -26 0 -27 -3 -31 -22 -28 -14 2 -22 10
-20 18 2 11 -2 10 -12 -3 -11 -14 -16 -15 -22 -5 -12 18 -12 31 0 47 8 11 8
13 -1 7 -12 -7 -19 19 -14 48 1 5 -5 6 -14 3 -15 -6 -19 2 -16 35 1 9 -2 19
-7 22 -6 3 -8 -9 -6 -29 2 -21 -1 -33 -6 -30 -6 3 -8 -7 -6 -24 2 -18 -2 -32
-9 -35 -14 -5 -14 11 -2 32 5 6 4 12 -1 12 -5 0 -10 28 -11 63 l-2 62 51 -3
c27 -2 50 -7 50 -12 0 -4 11 -5 24 -3 13 3 33 0 45 -6 14 -8 21 -8 21 -1 0 5
-5 10 -10 10 -7 0 -10 20 -9 49 2 28 7 48 11 44 5 -3 7 -11 5 -17 -3 -7 1 -13
8 -13 7 0 11 6 9 12 -3 8 5 10 25 7 26 -3 30 -9 33 -43 2 -21 -1 -41 -7 -43
-5 -2 -2 -5 8 -5 9 -1 16 -5 15 -9 -2 -5 13 -24 31 -43 33 -32 35 -24 4 12
-11 14 -11 18 2 29 16 13 10 34 -7 24 -7 -5 -8 -2 -3 6 6 9 4 11 -4 6 -7 -5
-10 -14 -7 -22 3 -7 1 -16 -3 -18 -5 -3 -7 5 -7 17 1 12 -2 27 -6 33 -6 8 0
10 17 6 14 -2 25 -9 25 -15 0 -6 3 -7 6 -4 4 4 1 13 -6 22 -10 12 -9 16 4 21
21 8 20 33 -4 69 -23 34 -25 45 -8 45 6 0 8 -3 5 -6z m-237 -58 c0 -2 -9 -6
-20 -9 -11 -3 -20 -1 -20 4 0 5 9 9 20 9 11 0 20 -2 20 -4z m250 -27 c0 -5 -4
-9 -8 -9 -5 0 -9 7 -9 15 0 8 4 12 9 9 4 -3 8 -9 8 -15z m-317 -14 c-7 -21
-12 -19 -10 4 0 11 5 18 9 15 4 -3 5 -11 1 -19z m63 2 c0 -13 -6 -24 -13 -24
-6 0 -9 5 -5 11 4 6 7 14 8 19 5 26 10 23 10 -6z m215 -14 c13 -16 12 -17 -3
-4 -10 7 -18 15 -18 17 0 8 8 3 21 -13z m-216 -211 c-3 -3 -11 0 -18 7 -9 10
-8 11 6 5 10 -3 15 -9 12 -12z m266 -5 c-10 -9 -11 -8 -5 6 3 10 9 15 12 12 3
-3 0 -11 -7 -18z m-851 4 c0 -6 -4 -12 -8 -15 -5 -3 -9 1 -9 9 0 8 4 15 9 15
4 0 8 -4 8 -9z m587 -26 c0 -8 -4 -15 -9 -15 -4 0 -8 7 -8 15 0 8 4 15 8 15 5
0 9 -7 9 -15z m182 -15 c11 -24 11 -24 -3 -6 -9 11 -16 24 -16 30 0 12 5 7 19
-24z m-22 -15 c0 -10 -7 -11 -23 -5 -12 5 -25 6 -30 2 -4 -4 -4 -2 -1 4 9 16
54 14 54 -1z m-841 -77 c1 -9 -3 -15 -10 -14 -18 3 -52 25 -39 26 6 0 15 -5
18 -10 4 -6 11 -7 17 -4 6 4 5 10 -3 16 -12 8 -12 9 0 6 8 -2 15 -11 17 -20z
m-33 -18 c38 -15 51 -40 19 -40 -10 0 -23 -5 -30 -12 -7 -7 -12 -9 -12 -5 0 3
-12 2 -26 -4 -24 -8 -25 -8 -14 6 11 13 8 14 -19 11 -17 -2 -28 1 -25 5 3 5
-5 7 -18 5 -13 -2 -22 -10 -20 -17 2 -7 -5 -19 -14 -26 -10 -7 -13 -13 -8 -13
6 0 15 5 22 12 7 7 12 8 12 4 0 -5 7 -3 15 4 13 10 18 11 28 1 9 -10 8 -11 -5
-6 -12 5 -20 1 -24 -9 -3 -9 -10 -14 -15 -11 -4 3 -16 1 -26 -5 -10 -6 -44
-21 -77 -34 -32 -13 -54 -26 -48 -30 6 -4 9 -14 6 -24 -2 -9 2 -3 10 13 13 25
20 27 18 4 -1 -3 5 -6 13 -6 8 0 12 4 10 8 -3 4 12 7 33 7 44 -1 146 34 135
46 -4 5 7 1 25 -8 18 -9 38 -14 44 -10 7 5 8 3 3 -6 -6 -10 -4 -12 8 -7 11 4
17 1 17 -8 0 -8 -5 -15 -11 -15 -5 0 -34 -11 -64 -25 -37 -18 -55 -33 -59 -50
-4 -15 -14 -25 -24 -25 -14 0 -14 2 -3 9 12 8 10 16 -13 45 -30 40 -32 41 -42
24 -4 -7 -4 -10 1 -6 9 9 35 -9 35 -24 0 -6 -6 -8 -13 -5 -15 6 -21 -30 -6
-39 5 -3 8 -2 7 3 -2 4 2 8 7 8 6 0 9 -3 8 -7 -2 -4 6 -12 17 -18 14 -8 20 -8
20 0 0 6 5 8 12 4 7 -4 8 -3 4 4 -4 7 -2 20 3 29 9 14 11 8 9 -29 -1 -38 -4
-45 -15 -36 -7 6 -13 7 -13 2 0 -5 -4 -4 -8 1 -12 16 -109 65 -116 58 -3 -3
-6 -1 -6 5 0 7 -11 12 -25 12 -20 0 -27 6 -32 30 -3 17 -9 33 -14 36 -5 3 -6
-10 -2 -27 7 -35 4 -34 -40 7 -6 6 -19 9 -29 6 -10 -2 -18 0 -18 5 0 12 -50
36 -58 28 -3 -3 0 -5 6 -5 8 0 8 -8 0 -31 -8 -23 -7 -33 2 -42 10 -9 11 -9 6
0 -3 6 -2 15 4 18 6 4 9 1 8 -7 -2 -8 4 -12 15 -10 17 3 17 2 0 -16 -14 -14
-20 -15 -26 -5 -5 7 -12 11 -17 8 -6 -3 -9 19 -7 51 l2 57 90 33 c104 39 95
37 95 23 0 -5 -6 -7 -12 -3 -7 4 -10 4 -6 -1 4 -4 2 -15 -4 -24 -8 -10 -4 -9
10 3 12 11 22 24 22 31 0 6 22 18 48 26 45 15 48 15 48 -2 0 -14 -3 -16 -15
-6 -11 9 -15 9 -18 0 -2 -7 -12 -10 -21 -7 -15 5 -15 4 1 -6 9 -6 14 -16 11
-22 -4 -7 -2 -8 5 -4 6 4 9 12 5 18 -4 6 3 8 17 6 14 -2 24 2 25 10 1 6 2 14
3 17 0 3 0 8 -1 12 -3 7 102 44 112 40 3 -1 22 -9 43 -17z m1828 -27 c13 -16
12 -17 -3 -4 -10 7 -18 15 -18 17 0 8 8 3 21 -13z m140 -57 c5 3 9 1 9 -4 0
-5 -8 -12 -19 -15 -15 -3 -17 0 -13 17 3 11 7 15 10 8 2 -7 8 -10 13 -6z m-36
-5 c-9 -8 -36 -10 -30 -2 2 4 11 8 20 8 8 0 13 -3 10 -6z m182 -55 l24 -12
-40 -19 c-23 -10 -41 -21 -41 -25 0 -4 26 -19 58 -33 31 -15 51 -27 44 -27
-11 0 -84 -30 -117 -48 -5 -3 -7 -2 -3 3 5 5 -2 13 -15 20 -15 8 -21 19 -19
35 2 22 1 23 -10 7 -12 -17 -15 -16 -56 3 -23 11 -42 23 -42 26 0 3 8 1 17 -5
19 -10 56 1 79 24 13 13 11 17 -20 32 -44 20 -45 27 -7 44 16 7 27 17 25 21
-6 9 81 -23 123 -46z m-2257 4 c0 -5 -5 -10 -11 -10 -5 0 -7 5 -4 10 3 6 8 10
11 10 2 0 4 -4 4 -10z m256 -114 c-5 -20 -4 -20 9 -2 7 10 19 16 26 14 6 -2
-8 -16 -31 -32 -30 -20 -45 -25 -53 -17 -6 6 -16 11 -21 11 -6 0 0 -10 14 -21
26 -21 25 -21 -30 -2 -13 5 -13 4 0 -8 8 -8 13 -13 11 -11 -3 1 -10 -7 -16
-18 -9 -17 -11 -13 -10 26 0 38 4 48 20 54 12 4 26 15 33 23 19 22 55 10 48
-17z m-550 -22 c7 3 13 0 11 -6 -1 -5 6 -12 16 -13 26 -5 31 -11 12 -19 -11
-4 -14 -2 -9 6 4 7 3 8 -4 4 -7 -4 -8 -15 -2 -30 7 -19 4 -28 -14 -45 -21 -20
-36 -19 -36 1 0 5 5 6 10 3 6 -3 10 1 10 10 0 10 -4 13 -12 8 -8 -4 -6 4 4 18
10 15 13 31 8 39 -6 10 -9 8 -13 -6 -2 -10 -5 -1 -5 21 0 22 2 32 5 22 3 -11
11 -16 19 -13z m163 -3 c1 9 8 16 16 16 11 0 8 -8 -11 -28 -26 -27 -53 -31
-37 -6 4 7 8 15 9 20 4 20 6 20 14 2 6 -15 9 -16 9 -4z m531 -2 c0 -5 7 -5 17
-2 11 5 14 3 8 -6 -6 -10 -1 -12 16 -7 13 4 -2 -7 -33 -24 -50 -26 -61 -28
-83 -18 -18 8 -22 14 -13 20 8 5 9 8 2 8 -26 0 -32 -23 -25 -93 1 -5 6 -5 11
-2 6 4 8 15 5 26 -4 11 -2 19 4 19 6 0 10 -3 10 -7 -3 -20 2 -34 11 -28 6 3
10 0 10 -7 0 -10 3 -9 11 2 8 12 10 12 7 -5 -2 -11 -12 -21 -22 -23 -13 -3
-16 0 -11 9 5 8 4 10 -4 5 -6 -4 -20 -4 -31 -1 -16 5 -20 15 -20 51 0 42 3 46
46 73 43 26 84 31 84 10z m1700 15 c0 -8 -19 -13 -24 -6 -3 5 1 9 9 9 8 0 15
-2 15 -3z m-130 -38 c0 -2 -6 -9 -14 -15 -11 -9 -16 -9 -22 0 -4 7 -3 9 4 5 6
-3 13 -2 17 4 6 10 15 14 15 6z m-1406 -53 c-4 -44 -7 -47 -39 -39 -31 8 -32
32 -4 62 29 31 48 21 43 -23z m1352 32 c-1 -8 -5 -17 -8 -21 -5 -4 -4 16 1 34
3 9 9 -1 7 -13z m-2158 -49 c-2 -52 -3 -53 -25 -43 -29 13 -29 22 -2 41 12 8
18 19 14 25 -6 10 1 31 10 31 3 0 4 -24 3 -54z m108 46 c-3 -5 10 -16 28 -25
31 -14 34 -20 37 -67 4 -56 2 -65 -15 -50 -7 5 -17 5 -26 0 -11 -7 -11 -10 -2
-11 6 -1 17 -2 24 -3 6 0 13 -7 16 -14 6 -20 -74 23 -82 43 -11 29 -7 57 7 49
10 -6 10 -4 0 7 -18 18 -16 32 3 25 10 -4 13 -2 8 6 -5 8 -2 9 10 5 10 -4 15
-3 11 4 -4 5 -16 7 -28 4 -17 -5 -19 -4 -7 4 8 6 11 11 7 11 -9 0 1 20 9 20 3
0 3 -4 0 -8z m2019 -46 c0 -24 -4 -48 -8 -52 -5 -5 -6 3 -4 17 3 14 2 30 -1
35 -9 12 -46 18 -39 7 3 -5 -6 -10 -21 -11 l-27 -2 29 15 c16 9 31 13 34 11 2
-3 11 1 19 9 8 8 15 15 16 15 1 0 2 -20 2 -44z m49 20 c-3 -8 -13 -17 -22 -21
-13 -5 -13 -2 3 15 21 24 26 25 19 6z m42 -10 c0 -16 -4 -22 -14 -19 -11 5
-11 7 0 14 10 7 10 9 -2 9 -13 0 -13 1 0 10 8 5 15 10 16 10 0 0 0 -11 0 -24z
m-1791 4 c3 -5 1 -10 -4 -10 -6 0 -11 5 -11 10 0 6 2 10 4 10 3 0 8 -4 11 -10z
m32 -15 c0 -8 -4 -12 -9 -9 -4 3 -8 9 -8 15 0 5 4 9 8 9 5 0 9 -7 9 -15z m138
5 c3 -5 2 -10 -4 -10 -5 0 -13 5 -16 10 -3 6 -2 10 4 10 5 0 13 -4 16 -10z
m1473 -34 c-7 -8 -15 -12 -17 -11 -5 6 10 25 20 25 5 0 4 -6 -3 -14z m122 4
c-18 -12 -30 -13 -30 -2 0 4 10 9 22 9 18 2 20 0 8 -7z m-1896 -12 c-3 -4 -11
-5 -19 -1 -21 7 -19 12 4 10 11 0 18 -5 15 -9z m39 -26 c-10 -9 -14 -14 -9
-10 5 4 15 0 23 -8 8 -8 19 -14 24 -14 11 0 7 22 -6 33 -6 5 -4 7 5 4 23 -6
19 -42 -5 -43 -40 -2 -46 -4 -39 -15 4 -8 9 -7 15 2 5 8 8 -14 7 -51 -1 -36
-3 -56 -6 -45 -6 28 -32 64 -32 45 0 -20 -16 -1 -25 30 -7 23 -7 24 11 10 18
-14 18 -14 5 3 -9 11 -18 14 -24 8 -11 -11 1 -73 13 -66 5 3 11 1 15 -5 4 -6
11 -8 16 -5 5 4 9 -1 9 -9 0 -14 -4 -14 -35 1 -34 16 -35 18 -33 69 2 53 12
62 36 34 11 -13 11 -11 2 7 -6 13 -14 22 -18 22 -16 -3 -23 2 -17 11 4 7 12 7
25 0 13 -7 21 -6 30 5 7 8 16 12 21 9 5 -3 1 -13 -8 -22z m907 -12 c0 -10 -88
-60 -106 -60 -8 0 -14 5 -14 10 0 7 -8 6 -22 -1 -14 -8 -18 -14 -10 -17 16 -5
15 -19 -2 -19 -14 0 -16 14 -3 34 4 6 3 13 -3 15 -6 2 16 17 47 34 48 26 63
30 85 22 16 -6 28 -14 28 -18z m685 20 c-3 -5 -12 -10 -18 -10 -7 0 -6 4 3 10
19 12 23 12 15 0z m-612 -44 c3 4 14 3 24 0 15 -6 15 -8 3 -16 -13 -8 -13 -10
0 -10 9 0 26 -7 39 -17 l24 -16 -26 -13 c-26 -14 -61 -9 -51 7 3 5 -2 6 -11 3
-14 -6 -14 -8 2 -20 17 -13 17 -13 -3 -14 -12 0 -38 7 -57 15 -44 18 -50 19
-41 3 4 -7 3 -9 -1 -5 -20 18 -10 35 32 56 29 14 42 25 37 34 -6 9 -5 9 8 0 8
-7 18 -10 21 -7z m573 -8 c-20 -11 -44 1 -25 12 6 5 19 6 27 3 12 -5 12 -7 -2
-15z m-1457 5 c-3 -19 2 -23 20 -13 15 7 22 7 27 -2 4 -7 4 -10 -1 -6 -4 4
-15 3 -24 -1 -10 -6 -23 -4 -34 4 -17 12 -15 16 11 24 1 1 1 -2 1 -6z m266 -3
c-3 -5 -12 -10 -18 -10 -7 0 -6 4 3 10 19 12 23 12 15 0z m75 -19 c0 -18 -18
-41 -33 -41 -5 0 -4 7 3 16 11 12 11 15 -1 12 -8 -2 -13 3 -11 10 3 17 -15 15
-22 -3 -3 -8 -12 -12 -21 -9 -13 5 -10 9 11 21 19 9 31 10 38 3 16 -16 30 -12
16 5 -11 13 -10 14 4 9 9 -3 16 -14 16 -23z m220 -3 c-1 -13 -2 -42 -1 -66 1
-41 3 -44 41 -59 22 -9 40 -20 40 -25 0 -5 -5 -6 -10 -3 -6 4 -22 -1 -36 -10
-13 -9 -29 -13 -34 -10 -6 3 -10 1 -10 -4 0 -6 -4 -11 -10 -11 -5 0 -6 8 -3
17 5 13 2 15 -12 10 -15 -6 -16 -5 -6 7 10 12 9 14 -7 10 -10 -3 -24 2 -31 10
-8 9 -18 16 -24 16 -12 0 -97 53 -97 61 0 7 73 39 89 39 7 0 9 5 6 10 -3 6 -2
10 2 10 5 0 14 -9 21 -21 7 -12 16 -18 19 -15 4 3 11 1 18 -4 8 -7 15 -3 23
15 6 14 7 27 2 30 -12 7 -23 -12 -14 -26 4 -7 -2 -7 -17 1 -30 16 -39 24 -19
18 8 -3 21 1 28 9 21 21 44 16 42 -9z m970 6 c0 -8 -19 -13 -24 -6 -3 5 1 9 9
9 8 0 15 -2 15 -3z m-1325 -14 c-3 -5 -12 -10 -18 -10 -7 0 -6 4 3 10 19 12
23 12 15 0z m-109 -11 c3 -6 0 -15 -7 -20 -14 -8 -32 9 -23 23 7 11 22 10 30
-3z m-41 -90 c-4 -5 -12 -9 -18 -8 -8 0 -8 2 1 6 10 4 9 9 -5 20 -17 13 -16
13 5 3 12 -6 20 -15 17 -21z m44 -6 c-2 -24 -2 -25 -6 -5 -3 13 -9 19 -15 16
-7 -4 -8 -2 -4 4 13 21 26 13 25 -15z m114 4 c-4 -8 -1 -7 9 1 14 11 18 10 30
-7 8 -12 18 -18 21 -14 4 3 7 -5 7 -18 0 -14 6 -31 13 -38 10 -11 10 -13 0 -7
-13 7 -17 -11 -14 -64 1 -18 -1 -21 -7 -12 -5 8 -12 13 -16 12 -19 -5 -64 24
-63 40 1 11 7 16 15 13 7 -3 11 -12 8 -19 -6 -16 10 -19 19 -3 4 6 14 8 22 4
13 -4 14 -3 3 10 -7 8 -8 15 -2 15 5 0 9 11 8 24 0 16 -5 21 -10 15 -14 -13
-28 -11 -20 4 6 9 5 9 -8 0 -8 -7 -18 -10 -22 -6 -4 4 -4 0 0 -10 3 -9 2 -17
-4 -17 -10 0 -15 77 -6 92 3 5 10 6 15 2 5 -3 6 -11 2 -17z m619 -19 c-5 -5
-17 -6 -26 -2 -13 5 -14 9 -5 14 16 11 43 0 31 -12z m-1165 -20 c-3 -8 -6 -5
-6 6 -1 11 2 17 5 13 3 -3 4 -12 1 -19z m163 -75 c0 -32 -4 -53 -11 -53 -6 0
-8 7 -4 18 5 14 4 15 -6 5 -16 -16 -33 -17 -23 -1 4 6 3 8 -4 5 -26 -17 -39 4
-39 62 l0 57 44 -20 c43 -20 43 -20 43 -73z m244 66 c11 17 26 13 26 -6 0 -14
-2 -15 -9 -4 -7 11 -9 11 -13 0 -5 -15 -28 -3 -28 14 0 8 3 8 9 -2 6 -9 11
-10 15 -2z m420 -15 c3 -8 2 -12 -4 -9 -6 3 -10 10 -10 16 0 14 7 11 14 -7z
m186 0 c0 -8 -4 -12 -10 -9 -5 3 -10 10 -10 16 0 5 5 9 10 9 6 0 10 -7 10 -16z
m-433 -22 c-17 -16 -39 -8 -31 12 3 8 14 12 25 9 18 -5 19 -7 6 -21z m374 0
c-7 -2 -18 1 -23 6 -8 8 -4 9 13 5 13 -4 18 -8 10 -11z m95 3 c-8 -8 -18 -15
-22 -15 -3 0 -1 7 6 15 7 8 17 15 22 15 5 0 3 -7 -6 -15z m-136 1 c0 -2 -7 -9
-15 -16 -13 -11 -14 -10 -9 4 5 14 24 23 24 12z m85 -16 c-7 -12 22 -21 43
-13 9 4 23 14 30 22 9 11 11 11 6 2 -5 -11 -3 -13 9 -8 10 3 17 2 17 -4 0 -6
4 -8 9 -5 13 9 42 -4 35 -16 -3 -5 0 -8 7 -7 20 4 59 -11 59 -22 0 -6 5 -7 10
-4 6 3 10 4 10 1 0 -3 -10 -10 -21 -17 -17 -9 -20 -8 -14 3 3 7 1 6 -7 -3 -16
-19 -63 -46 -54 -30 4 6 2 11 -4 11 -7 0 -25 9 -40 20 -18 13 -31 17 -35 10
-4 -6 -11 -8 -16 -5 -5 4 -9 1 -9 -5 0 -7 6 -10 13 -7 8 3 20 1 28 -4 12 -7
12 -9 -1 -10 -8 -1 -23 -1 -32 0 -10 1 -18 -1 -18 -6 0 -4 18 -8 40 -9 25 0
37 3 33 10 -4 6 1 5 10 -3 18 -14 14 -33 -6 -26 -50 15 -69 15 -64 1 4 -10 1
-13 -9 -9 -7 3 -14 0 -14 -7 0 -6 4 -9 9 -5 16 9 22 -12 7 -24 -27 -23 -31 25
-8 104 8 27 5 32 -20 48 -16 9 -26 22 -23 27 4 6 11 8 16 4 5 -3 7 -9 4 -14z
m-168 -5 c0 -8 -4 -15 -9 -15 -10 0 -11 14 -1 23 9 10 10 9 10 -8z m43 2 c0
-2 -10 -12 -22 -23 l-23 -19 19 23 c18 21 26 27 26 19z m-112 -30 c7 -5 10
-18 7 -28 -5 -14 -1 -17 18 -15 22 3 24 -1 23 -40 -1 -23 -5 -46 -10 -51 -5
-5 -7 -1 -3 8 6 19 -38 45 -48 29 -4 -6 -14 -5 -25 3 -22 13 -24 61 -3 79 7 6
10 15 7 20 -4 6 -10 5 -15 -3 -7 -11 -9 -10 -9 4 0 14 5 17 23 11 12 -3 28
-11 35 -17z m119 6 c-4 -3 -2 -11 3 -18 7 -8 5 -12 -4 -12 -8 0 -12 7 -11 16
5 22 4 21 12 21 3 0 3 -3 0 -7z m-862 -12 c3 -5 2 -12 -3 -15 -5 -3 -9 1 -9 9
0 17 3 19 12 6z m-147 -18 c24 -16 29 -25 31 -70 1 -29 -2 -53 -7 -53 -16 0
-22 13 -11 27 14 16 -2 18 -19 1 -15 -15 -37 3 -39 34 -2 19 3 23 27 24 23 1
28 -2 25 -17 -2 -11 0 -17 5 -14 14 9 4 40 -14 39 -9 -1 -16 2 -16 7 0 5 -8 6
-17 2 -15 -5 -15 -3 2 11 17 15 17 17 3 12 -10 -3 -18 -1 -18 4 0 15 16 12 48
-7z m976 -1 c3 -5 -1 -9 -9 -9 -8 0 -12 4 -9 9 3 4 7 8 9 8 2 0 6 -4 9 -8z
m290 -84 c-5 -7 -9 -16 -9 -20 0 -3 -3 -10 -7 -14 -9 -8 -2 31 7 47 4 6 9 8
12 5 3 -2 1 -11 -3 -18z m-45 3 c9 -6 11 -18 6 -41 l-7 -32 26 17 c14 10 26
13 26 9 0 -5 -12 -14 -26 -21 -20 -9 -26 -9 -30 2 -3 8 -2 19 2 26 5 9 1 11
-14 7 -14 -4 -22 0 -25 13 -8 28 13 38 42 20z m-58 -88 c13 -16 12 -17 -3 -4
-17 13 -22 21 -14 21 2 0 10 -8 17 -17z m-1026 -14 c-4 -6 -1 -10 6 -8 34 4
39 -1 20 -22 -11 -12 -18 -30 -16 -40 3 -13 0 -17 -7 -13 -8 5 -9 1 -4 -12 5
-14 4 -16 -4 -8 -7 7 -8 19 -1 37 6 15 7 27 2 27 -4 0 -7 10 -6 23 3 26 3 27
11 27 3 0 2 -5 -1 -11z m68 -45 c-4 -10 -9 -12 -15 -6 -12 12 -1 35 12 27 5
-3 6 -13 3 -21z m44 -19 c0 -8 -4 -12 -9 -9 -5 3 -6 10 -3 15 9 13 12 11 12
-6z m43 -15 c0 -5 -8 -10 -17 -10 -15 0 -16 2 -3 10 19 12 20 12 20 0z m-86
-11 c3 -3 -4 -5 -14 -6 -11 -1 -20 2 -20 7 0 8 25 8 34 -1z m53 -19 c3 -10 2
-11 -4 -4 -4 6 -15 14 -23 17 -11 5 -9 6 4 4 11 -1 21 -9 23 -17z m-87 -5 c11
-13 10 -14 -4 -9 -9 3 -16 10 -16 15 0 13 6 11 20 -6z m120 -18 c0 -26 -4 -33
-18 -32 -24 1 -42 14 -42 28 1 7 6 5 13 -5 9 -11 18 -14 28 -7 12 7 12 9 -1 9
-13 0 -13 1 0 10 8 5 11 10 7 10 -5 0 -5 5 -2 10 11 17 15 11 15 -23z m320 1
c0 -4 3 -7 8 -6 15 5 71 -25 65 -35 -3 -6 -1 -7 5 -3 7 4 20 2 29 -3 13 -8 -7
-10 -77 -9 -52 1 -87 3 -77 6 9 2 17 7 17 12 0 5 6 7 13 4 8 -3 19 2 26 10 11
13 8 14 -21 11 -24 -3 -29 -2 -18 5 13 9 7 14 -12 11 -5 0 -8 6 -8 14 0 12 4
13 25 3 14 -6 25 -15 25 -20z m-389 9 c-6 -8 -9 -16 -6 -18 2 -3 -5 -5 -15 -5
-18 0 -18 1 -2 18 20 20 40 24 23 5z m200 -65 c-7 -2 -18 1 -23 6 -8 8 -4 9
13 5 13 -4 18 -8 10 -11z m-941 -146 l0 -64 -80 4 c-44 2 -80 1 -81 -3 -12
-182 -18 -226 -35 -246 -16 -18 -16 -20 -1 -8 15 12 17 11 17 -13 0 -14 5 -26
12 -26 6 0 8 -3 5 -6 -4 -4 -15 -1 -24 7 -16 13 -17 12 -4 -4 16 -20 11 -30
-12 -22 -8 4 -14 14 -12 23 1 9 -1 22 -5 27 -18 25 -5 51 23 46 4 0 7 4 7 9 0
6 -5 10 -11 10 -5 0 -8 4 -5 8 2 4 -17 8 -44 9 -45 0 -48 -1 -39 -18 5 -11 13
-19 18 -19 4 0 8 -7 8 -15 0 -8 -7 -15 -14 -15 -8 0 -11 -4 -8 -10 3 -5 1 -10
-6 -10 -8 0 -8 -4 1 -15 7 -9 10 -18 6 -22 -10 -11 -18 4 -19 39 -2 23 2 32
11 30 8 -1 11 2 7 8 -3 6 -11 8 -16 5 -5 -4 -7 30 -5 82 2 48 4 116 5 151 l1
62 30 0 c27 0 30 3 30 30 l0 30 120 0 120 0 0 -64z m350 34 c0 -27 3 -30 33
-30 30 0 33 -3 31 -27 -1 -16 -2 -110 -3 -209 l-1 -182 -39 -4 c-22 -2 -37 0
-34 5 2 4 -1 6 -9 5 -8 -2 -13 5 -12 18 1 11 -5 21 -12 21 -8 0 -12 -3 -9 -5
3 -3 0 -11 -6 -19 -9 -10 -15 -10 -25 -2 -10 8 -14 8 -14 1 0 -17 20 -25 34
-13 15 13 41 -10 28 -24 -4 -5 -2 -5 4 -2 14 8 31 -12 31 -34 0 -13 -14 -16
-79 -16 -44 -1 -77 2 -74 5 3 3 1 11 -5 19 -9 10 -8 13 5 13 9 0 15 -3 15 -7
-4 -25 3 -24 20 0 13 21 21 25 26 16 5 -7 1 -17 -10 -26 -17 -12 -16 -13 13
-13 19 0 32 5 32 13 0 8 3 8 8 2 9 -14 34 -13 39 1 4 13 -45 16 -53 3 -3 -5
-10 -9 -17 -9 -8 0 -8 3 1 12 14 14 16 32 3 24 -5 -3 -14 1 -21 9 -7 8 -17 12
-23 8 -6 -4 -8 2 -5 15 4 12 2 22 -3 22 -5 0 -9 -9 -9 -20 0 -11 -5 -20 -11
-20 -6 0 -8 10 -5 23 3 12 3 16 0 9 -3 -6 -10 -10 -15 -7 -5 4 -6 -2 -2 -12 6
-16 5 -16 -10 -4 -9 7 -17 10 -17 6 0 -4 8 -14 18 -22 12 -10 14 -16 5 -19 -7
-3 -13 -10 -13 -15 0 -6 5 -7 10 -4 6 3 10 0 10 -8 0 -9 -12 -14 -35 -15 -23
-1 -35 3 -34 11 6 46 -1 57 -34 57 -32 0 -34 2 -34 35 0 19 4 32 9 29 5 -3 5
-10 2 -16 -5 -7 -2 -8 5 -4 7 5 9 15 5 25 -13 31 -15 91 -4 91 7 0 9 -9 5 -22
-6 -21 -5 -22 6 -4 10 16 9 21 -5 31 -13 10 -16 31 -16 118 0 58 3 112 6 121
4 10 18 16 40 16 31 0 34 3 34 30 l0 30 110 0 110 0 0 -30z m390 0 c0 -28 3
-30 35 -30 l35 0 0 -102 c0 -119 -6 -148 -29 -149 -14 -1 -13 -2 2 -6 9 -2 17
-13 17 -24 0 -11 -4 -18 -9 -14 -5 3 -13 1 -16 -5 -4 -6 -3 -10 2 -9 22 4 22
-3 -3 -24 -27 -24 -27 -24 -5 -30 17 -4 20 -3 12 7 -6 7 -8 16 -4 19 15 16 21
4 21 -38 0 -42 -1 -45 -26 -45 -19 0 -30 -7 -37 -22 -7 -16 -18 -22 -33 -21
-12 2 -22 -1 -22 -5 0 -12 32 -11 48 1 8 7 12 5 12 -7 0 -14 -12 -16 -77 -15
-47 1 -87 7 -101 16 -17 10 -22 11 -20 1 2 -9 -9 -13 -32 -14 -31 -1 -36 2
-35 22 0 12 3 26 8 30 11 11 9 26 -3 19 -5 -3 -10 0 -10 8 0 10 8 13 25 9 19
-3 23 -8 15 -17 -5 -6 -7 -15 -3 -18 3 -4 -1 -7 -10 -7 -10 0 -17 -5 -17 -10
0 -7 7 -7 20 0 11 6 18 15 15 20 -3 5 -1 11 4 15 6 3 7 13 4 23 -6 15 -5 16
13 2 14 -11 16 -11 7 0 -10 11 -9 18 5 34 l17 21 -24 -20 c-21 -18 -24 -18
-18 -2 4 9 2 17 -3 17 -6 0 -10 -7 -10 -16 0 -9 -5 -12 -12 -8 -9 5 -9 2 1 -9
14 -17 5 -23 -15 -9 -16 11 -15 82 2 82 8 0 14 -5 14 -11 0 -5 -4 -7 -10 -4
-11 7 -14 -8 -3 -18 8 -8 33 25 27 35 -3 5 -14 8 -25 8 -17 0 -19 8 -19 83 0
46 3 125 6 175 l7 92 128 0 129 0 0 -30z m430 -30 l0 -60 -95 0 -95 0 -1 -27
c-1 -16 -3 -38 -4 -50 -2 -22 1 -23 81 -23 l84 0 0 -54 0 -55 -88 3 c-48 1
-93 6 -100 10 -8 5 -10 2 -5 -10 4 -12 3 -15 -5 -10 -7 4 -12 2 -12 -3 0 -15
13 -14 29 2 11 10 12 3 9 -35 -3 -40 0 -48 14 -48 10 0 18 -4 18 -9 0 -5 8 -8
18 -7 9 2 20 -2 24 -8 5 -8 11 -7 20 2 6 6 17 12 23 12 5 0 3 -5 -5 -10 -9 -6
-10 -10 -3 -10 6 0 14 4 18 9 3 5 18 9 34 9 28 -1 28 -2 30 -59 1 -47 -2 -59
-15 -59 -9 0 -12 5 -8 13 5 8 2 8 -9 -2 -15 -11 -17 -11 -17 2 0 8 8 17 19 20
13 3 18 12 16 32 -5 41 -22 54 -34 24 -5 -13 -10 -18 -10 -11 -1 6 -6 12 -12
12 -6 0 -9 -6 -6 -12 2 -7 11 -13 20 -13 9 0 22 -6 29 -13 15 -15 0 -16 -38
-2 -24 9 -25 9 -14 -5 7 -8 17 -12 23 -8 6 3 7 1 3 -6 -6 -9 -11 -9 -22 0 -14
11 -15 10 -18 -13 -1 -8 -21 -12 -54 -13 -42 -1 -56 3 -63 17 -6 10 -8 22 -5
27 3 4 -1 8 -9 8 -11 0 -12 -5 -4 -20 12 -22 7 -30 -22 -34 -38 -6 -49 19 -49
112 0 52 4 84 10 80 5 -3 7 -12 4 -20 -5 -12 12 -14 36 -5 3 1 8 2 13 1 12 -2
8 5 -20 30 -14 13 -23 18 -18 10 5 -10 4 -12 -4 -7 -8 5 -10 45 -7 139 2 73 5
149 5 170 l1 37 145 0 145 0 0 -60z m318 -3 l3 -64 -70 4 c-68 4 -71 4 -73
-19 -2 -34 -4 -76 -6 -136 -1 -29 -6 -51 -11 -48 -14 9 -22 -24 -10 -42 9 -14
10 -14 6 6 -3 12 -1 22 4 22 5 0 8 -18 7 -40 -1 -22 -6 -40 -12 -39 -27 3 -36
-3 -33 -23 1 -13 9 -29 17 -36 13 -10 13 -11 -1 -6 -10 3 -20 1 -24 -5 -3 -6
-1 -11 6 -11 7 0 10 -3 6 -6 -10 -10 -28 7 -20 19 12 19 13 41 3 57 -8 13 -11
12 -24 -5 -8 -11 -12 -24 -9 -30 4 -5 3 -7 -2 -3 -4 4 -14 3 -21 -3 -10 -8
-12 -5 -8 17 6 34 14 45 14 20 0 -9 5 -14 10 -11 6 4 8 10 5 15 -3 5 8 16 26
25 17 9 28 12 25 6 -4 -5 2 -9 13 -8 18 1 18 2 2 24 -9 12 -22 23 -28 23 -7 0
-13 7 -13 15 0 18 17 20 22 3 3 -7 7 -6 11 5 6 15 0 17 -40 13 l-46 -4 6 142
c4 77 7 151 7 164 0 22 2 22 128 22 l127 0 3 -63z m372 -64 c0 -87 -3 -123
-10 -113 -5 8 -10 10 -10 3 0 -6 -9 -9 -20 -6 -18 5 -20 0 -20 -39 0 -45 0
-45 33 -40 31 5 32 4 14 -15 -15 -18 -16 -21 -3 -26 8 -3 17 -1 19 6 3 7 4 2
4 -10 -1 -12 -6 -19 -11 -15 -23 14 -56 10 -57 -6 0 -16 -1 -16 -7 0 -6 14
-10 15 -25 3 -21 -15 -15 -61 6 -48 24 15 43 9 43 -13 0 -13 -4 -22 -9 -21 -5
1 -12 -4 -15 -12 -2 -8 -1 -11 4 -8 12 7 35 -19 26 -29 -4 -4 0 -5 9 -2 19 7
47 -8 35 -19 -5 -4 -11 -2 -13 5 -3 6 -9 9 -14 6 -6 -3 -22 6 -36 20 -25 25
-25 27 -8 46 18 20 18 20 -6 17 -13 -2 -24 -10 -24 -17 0 -7 -6 -15 -12 -17
-7 -3 -13 2 -13 11 0 9 6 16 13 16 8 0 8 3 2 8 -19 13 -18 77 2 93 16 13 17
13 4 -4 -8 -9 -11 -21 -7 -24 4 -4 11 -1 15 6 5 7 13 11 19 7 5 -3 21 3 33 14
18 14 20 19 9 20 -9 0 -22 -6 -29 -12 -11 -11 -12 -10 -6 1 6 11 1 13 -24 9
-18 -3 -34 -1 -37 4 -3 4 -11 8 -17 8 -8 0 -8 -3 1 -9 8 -5 0 -8 -23 -9 -46
-2 -55 -8 -50 -32 4 -21 -9 -27 -20 -10 -3 6 -2 10 4 10 5 0 8 8 6 18 -2 9 -4
20 -4 25 -1 4 -11 7 -23 6 -21 0 -21 -1 -4 -8 18 -7 18 -8 2 -14 -10 -4 -19
-1 -22 7 -5 13 -34 18 -34 5 0 -8 39 -22 60 -20 10 0 11 -1 2 -5 -6 -3 -9 -10
-6 -16 4 -6 -3 -5 -15 1 -17 9 -21 9 -19 -1 2 -7 -2 -12 -9 -11 -7 2 -10 -4
-7 -12 4 -8 2 -15 -4 -15 -12 0 -11 18 2 39 6 10 5 12 -2 7 -9 -5 -12 41 -12
178 l0 186 160 0 160 0 0 -127z m342 94 c2 -18 3 -107 3 -197 0 -147 -2 -163
-17 -166 -10 -1 -20 2 -23 6 -7 11 -36 2 -51 -17 -9 -11 -11 -9 -11 11 0 22 2
23 48 19 47 -4 49 -3 49 22 0 22 -2 24 -14 13 -10 -9 -11 -15 -2 -20 8 -6 8
-8 -1 -8 -19 0 -26 20 -13 35 7 9 8 15 2 15 -14 0 -33 -25 -25 -33 13 -14 -14
-7 -33 8 -19 15 -19 15 1 8 11 -3 17 -3 13 1 -4 5 -24 10 -45 12 -23 2 -33 0
-25 -5 8 -4 14 -12 15 -17 1 -5 8 -8 16 -7 9 1 10 -2 3 -9 -12 -12 -66 25 -54
37 4 5 2 5 -5 1 -6 -3 -14 -2 -18 3 -3 7 -15 7 -30 1 -16 -6 -25 -5 -29 3 -2
7 -4 3 -3 -8 2 -11 6 -26 10 -33 9 -14 -27 -12 -40 3 -5 4 -2 5 5 1 6 -4 12
-2 12 3 0 6 -4 11 -10 11 -6 0 -10 63 -10 170 l0 170 139 0 139 0 4 -33z m336
-26 c2 -36 -1 -57 -10 -62 -7 -5 -43 -9 -79 -9 -36 0 -68 -2 -70 -4 -3 -3 -3
-23 -1 -45 l4 -41 69 0 69 0 0 -55 0 -55 -32 0 c-25 0 -29 3 -18 10 9 6 10 10
3 10 -6 0 -14 -4 -17 -9 -3 -5 -16 -7 -28 -3 -16 4 -19 2 -13 -9 7 -11 6 -12
-6 -2 -14 11 -25 12 -69 1 -8 -1 -22 -12 -32 -23 -17 -19 -18 -19 -11 -1 5 15
3 17 -8 12 -8 -4 -5 0 5 8 17 14 18 16 3 16 -10 0 -17 9 -18 23 0 12 -3 84 -5
159 l-5 138 133 -2 133 -2 3 -55z m403 50 c1 -3 2 -24 4 -46 4 -70 1 -74 -67
-77 l-61 -3 2 -102 2 -103 -28 2 c-15 1 -36 8 -45 16 -10 8 -18 13 -19 11 -1
-2 -2 -23 -4 -47 -2 -35 0 -40 11 -31 11 9 11 15 3 25 -12 15 -3 38 12 28 5
-3 6 -10 3 -16 -4 -6 2 -17 12 -25 19 -14 19 -14 -1 -11 -11 2 -20 -3 -20 -9
0 -7 -3 -13 -7 -13 -5 0 -12 0 -17 0 -5 0 -9 27 -9 60 0 34 -2 64 -6 67 -3 3
0 13 7 21 9 13 9 14 0 8 -10 -5 -13 8 -13 53 0 67 0 67 -82 61 l-28 -2 0 70 0
70 175 -1 c96 0 175 -3 176 -6z m353 -22 c3 -17 6 -47 6 -65 l0 -34 -98 0
c-103 0 -119 -4 -101 -26 6 -8 9 -20 6 -27 -11 -30 10 -41 77 -39 36 1 68 -3
71 -8 4 -6 9 -30 11 -53 l5 -43 -61 2 c-33 1 -63 -2 -66 -7 -2 -4 -11 -6 -19
-2 -12 4 -15 -5 -15 -43 l0 -48 -17 24 c-9 14 -18 27 -19 29 -2 2 -10 -2 -18
-8 -16 -13 -32 1 -21 19 3 5 0 7 -9 4 -21 -8 3 -46 26 -41 9 3 19 -2 22 -10 3
-8 2 -12 -2 -9 -4 2 -14 1 -22 -4 -9 -5 -19 -5 -26 1 -10 8 -12 3 -10 -20 1
-17 5 -33 9 -37 8 -8 -1 -24 -14 -24 -5 0 -9 17 -8 38 1 20 -2 133 -6 250 l-7
212 150 0 150 0 6 -31z m386 -104 l0 -135 -29 0 c-27 0 -29 -3 -26 -30 3 -18
0 -28 -5 -25 -6 4 -10 2 -10 -3 0 -6 -9 -8 -20 -5 -12 3 -20 0 -20 -6 0 -7 4
-10 9 -7 5 3 12 -1 15 -10 3 -8 2 -12 -4 -9 -6 3 -10 -3 -10 -14 0 -13 7 -21
17 -21 9 0 13 3 10 7 -10 9 13 34 25 27 5 -3 14 -1 21 5 8 6 18 7 27 0 12 -8
11 -9 -5 -7 -12 2 -20 -3 -20 -12 0 -8 8 -14 18 -14 12 1 17 -6 17 -27 0 -16
-5 -29 -11 -29 -6 0 -8 9 -4 20 8 25 -9 26 -27 3 -7 -10 -22 -25 -33 -33 -18
-14 -19 -14 -7 2 10 13 10 17 0 22 -9 4 -8 5 2 3 9 -1 15 2 15 8 0 11 -35 15
-35 3 0 -4 -4 -8 -10 -8 -5 0 -10 18 -10 40 0 41 -4 44 -49 40 -14 -1 -21 2
-17 9 4 7 -1 11 -13 11 -12 0 -21 -5 -21 -11 0 -5 3 -8 8 -6 4 3 5 -25 2 -61
-2 -42 -6 -55 -8 -34 -4 35 -30 74 -44 66 -4 -3 -5 2 -2 10 3 9 10 16 16 16 5
0 7 -4 4 -9 -3 -5 1 -15 10 -22 14 -11 15 -10 12 7 -1 10 -10 24 -18 31 -17
14 -31 17 -29 6 3 -19 -2 -27 -10 -15 -7 11 -9 11 -14 -2 -4 -9 -2 -16 4 -16
5 0 7 -11 3 -25 -4 -18 -1 -27 11 -31 12 -5 14 -9 4 -15 -7 -4 -14 -17 -16
-28 -3 -19 -1 -20 17 -9 11 7 20 20 21 28 0 10 3 8 8 -5 5 -11 6 -24 3 -29 -3
-5 2 -7 11 -3 10 3 17 2 17 -3 0 -6 -6 -10 -14 -10 -8 0 -16 -7 -20 -15 -3 -8
-13 -14 -23 -14 -16 1 -16 2 -1 6 9 2 19 10 22 18 8 22 -15 30 -29 11 -12 -15
-13 -15 -19 0 -3 9 -4 20 0 25 3 5 1 9 -5 9 -5 0 -12 -8 -14 -17 -3 -11 -5 -8
-6 9 -1 21 3 26 15 21 12 -4 11 2 -6 32 l-21 38 20 -6 c28 -7 27 1 -1 13 -17
6 -19 9 -6 9 12 1 15 6 11 17 -5 13 -7 13 -14 2 -5 -8 -9 19 -9 67 0 44 -3
124 -7 178 l-6 97 166 0 167 0 0 -135z m396 78 c-4 -31 -8 -58 -9 -60 -2 -1
-48 -4 -102 -7 -55 -2 -101 -5 -102 -5 -2 -1 -3 -21 -3 -46 l0 -45 60 0 60 0
0 -30 c0 -27 3 -30 35 -31 58 -2 60 -3 63 -27 2 -15 -1 -23 -10 -21 -37 5 -79
-2 -72 -12 4 -8 1 -8 -12 -1 -11 5 -25 7 -33 4 -8 -3 -11 0 -7 6 3 6 2 14 -4
17 -6 4 -9 1 -8 -7 2 -9 -12 -13 -52 -13 -37 0 -55 4 -56 13 -1 6 -3 14 -4 17
-1 3 -3 11 -4 18 0 6 -17 14 -36 17 l-35 5 -3 103 -3 102 36 0 c32 0 35 2 35
30 l0 30 136 0 137 0 -7 -57z m-4289 -277 c6 -6 -3 -8 -32 -8 -28 0 -35 2 -35
12 0 10 56 7 67 -4z m2256 -35 c-2 -3 -9 1 -15 7 -14 14 -32 16 -24 4 3 -5 -1
-9 -9 -9 -8 0 -13 5 -12 11 1 6 -4 10 -11 8 -8 -1 -11 2 -7 8 3 6 10 8 15 5 5
-3 12 -1 15 5 4 7 15 3 29 -12 12 -13 21 -25 19 -27z m-790 33 c11 -11 -3 -24
-18 -18 -8 4 -12 10 -9 15 6 11 18 12 27 3z m1126 -34 c0 -11 -2 -10 -8 3 -8
22 -20 24 -33 5 -8 -10 -9 -10 -5 2 2 8 10 14 16 13 6 -2 11 3 11 10 0 8 4 7
10 -3 5 -8 9 -22 9 -30z m1688 10 c-1 -11 -7 -20 -15 -20 -7 0 -10 -5 -7 -11
4 -6 13 -8 21 -5 7 3 15 2 18 -2 2 -4 -6 -9 -20 -10 -13 -1 -24 3 -24 8 0 6
-6 10 -14 10 -8 0 -17 7 -20 16 -5 14 -4 15 9 4 12 -10 18 -10 30 0 8 7 15 18
14 24 0 7 -2 6 -6 -1 -2 -7 -12 -13 -21 -13 -13 0 -12 2 3 14 24 17 34 12 32
-14z m-1280 14 c-4 -4 1 -14 11 -23 20 -18 26 -75 7 -68 -6 3 -17 -4 -25 -16
-9 -15 -10 -22 -1 -25 6 -2 11 -8 11 -13 0 -6 -4 -8 -9 -5 -15 10 -41 -5 -42
-23 0 -9 -3 -11 -5 -4 -3 6 2 23 10 36 9 13 13 27 9 31 -5 4 -3 6 4 4 6 -1 11
0 12 5 1 4 -1 7 -4 7 -3 0 -9 0 -15 0 -5 0 -10 -8 -11 -17 0 -12 -2 -14 -6 -5
-3 8 11 27 32 45 l38 31 -22 17 c-15 12 -17 19 -9 22 19 8 22 8 15 1z m-3023
-12 c3 -5 -1 -9 -9 -9 -8 0 -12 4 -9 9 3 4 7 8 9 8 2 0 6 -4 9 -8z m1141 -1
c3 -5 1 -12 -5 -16 -5 -3 -10 1 -10 9 0 18 6 21 15 7z m362 -11 c12 0 13 -3 4
-14 -7 -8 -21 -12 -34 -8 -13 3 -16 7 -8 10 11 4 11 6 0 14 -11 7 -9 8 4 4 10
-3 26 -6 34 -6z m2717 -6 c4 -9 2 -13 -5 -8 -7 4 -10 1 -7 -7 3 -8 16 -13 34
-12 22 2 25 0 14 -7 -16 -11 -8 -13 29 -10 20 1 22 0 10 -13 -10 -11 -16 -12
-21 -3 -6 8 -8 8 -8 -1 0 -24 2 -28 12 -25 5 1 7 -2 3 -8 -3 -5 3 -10 14 -10
14 0 21 8 24 28 4 25 4 25 6 -5 1 -30 -2 -33 -28 -33 -27 0 -47 21 -42 43 1 5
-4 7 -11 4 -7 -2 -12 -8 -11 -13 0 -5 -6 -16 -15 -24 -14 -13 -15 -12 -9 4 6
14 3 17 -8 12 -12 -4 -13 -2 -7 12 5 9 7 34 5 55 -3 37 10 51 21 21z m-4217
-16 c15 -25 12 -40 -7 -35 -11 3 -21 -1 -24 -10 -3 -8 -1 -11 5 -8 5 4 22 4
35 1 21 -6 24 -9 13 -22 -10 -12 -9 -13 6 -7 14 5 17 3 13 -8 -19 -51 -19 -55
10 -57 23 -1 24 0 10 9 -10 5 -18 15 -18 20 0 6 4 8 9 4 5 -3 12 -1 16 4 3 6
12 8 20 4 8 -3 15 0 15 7 0 8 -9 10 -27 6 -21 -5 -24 -4 -13 4 13 8 12 10 -4
10 -15 0 -16 3 -6 15 13 15 35 11 25 -6 -4 -5 -2 -9 3 -9 6 0 13 7 16 16 3 8
2 12 -4 9 -6 -3 -10 0 -10 8 0 10 14 14 54 13 37 0 52 -4 49 -12 -2 -7 0 -15
6 -19 6 -3 9 0 5 8 -3 8 0 18 6 22 8 5 10 -12 8 -57 -3 -58 -5 -63 -28 -66
-22 -4 -23 -2 -10 15 14 17 14 17 -6 1 -23 -20 -74 -24 -74 -7 0 8 -4 8 -14 0
-7 -6 -33 -11 -58 -10 -41 2 -44 4 -46 31 -3 33 15 38 27 6 6 -17 9 -18 14 -5
9 23 -16 38 -61 39 -35 0 -39 3 -39 25 l0 24 23 -22 c13 -12 27 -19 31 -16 3
4 1 7 -5 7 -11 0 -9 50 3 70 8 14 22 13 32 -2z m1818 3 c-3 -5 -1 -12 5 -16 5
-3 10 0 10 7 0 8 3 9 8 3 4 -6 16 -10 28 -9 11 1 21 -5 21 -12 0 -10 -4 -11
-14 -2 -24 20 -26 -1 -2 -23 13 -11 19 -18 12 -15 -6 4 -14 -3 -18 -14 -3 -11
-11 -20 -16 -20 -5 0 -2 11 7 25 9 14 12 25 8 26 -5 1 -21 2 -36 3 -14 0 -30
5 -35 10 -4 5 -3 6 4 2 14 -8 27 10 13 19 -10 6 -5 25 6 25 3 0 3 -4 -1 -9z
m396 -4 c-6 -8 -8 -17 -4 -20 9 -9 23 -9 22 1 -3 17 2 32 10 32 5 0 8 -11 7
-24 0 -13 -4 -22 -8 -20 -3 2 -8 -1 -10 -7 -3 -8 -9 -6 -20 5 -10 10 -19 12
-23 6 -3 -5 -12 -10 -18 -10 -7 0 1 12 16 25 30 27 46 33 28 12z m339 3 c-8
-5 -12 -10 -8 -10 3 0 14 -3 22 -6 12 -5 15 -2 10 12 -5 18 -5 18 6 0 10 -15
14 -16 22 -5 8 11 9 11 5 -1 -2 -8 -10 -14 -16 -12 -6 1 -11 -6 -11 -15 0 -15
-2 -14 -15 3 -8 10 -15 17 -16 14 -7 -33 -4 -50 8 -45 10 3 13 -1 11 -13 -2
-9 -10 -16 -16 -14 -7 1 -12 -2 -12 -6 0 -19 15 -21 39 -6 l26 15 -24 -21
c-17 -14 -27 -18 -35 -10 -22 22 -28 8 -6 -15 13 -14 20 -25 15 -25 -4 0 -14
8 -22 18 -14 16 -14 16 -9 0 3 -10 1 -18 -5 -18 -12 0 -7 43 7 61 13 16 14 49
2 49 -4 0 -9 -10 -9 -22 l-2 -23 -4 23 c-2 12 2 29 11 37 8 9 13 22 10 30 -4
10 0 15 12 15 16 0 17 -2 4 -10z m1120 -4 c0 -3 -4 -8 -10 -11 -5 -3 -10 -1
-10 4 0 6 5 11 10 11 6 0 10 -2 10 -4z m-1272 -27 c3 -12 2 -12 -6 0 -9 13
-13 13 -29 0 -17 -13 -17 -13 -4 4 16 20 33 18 39 -4z m42 14 c0 -3 -7 -11
-15 -19 -13 -14 -15 -13 -15 4 0 10 7 19 15 19 8 0 15 -2 15 -4z m-360 -23 c0
-5 -5 -10 -11 -10 -5 0 -7 5 -4 10 3 6 8 10 11 10 2 0 4 -4 4 -10z m876 -47
l-1 -58 33 -2 c17 -1 30 2 27 6 -2 4 2 8 10 8 8 0 12 -4 9 -8 -2 -4 4 -9 13
-11 10 -2 -10 -5 -44 -5 l-62 -2 0 65 c0 35 4 64 8 64 4 0 7 -26 7 -57z
m-1358 34 c9 -10 6 -13 -12 -13 -16 0 -22 5 -19 13 3 7 9 13 13 13 4 0 12 -6
18 -13z m71 -9 c13 -22 13 -23 -6 -5 -11 9 -23 14 -28 10 -4 -5 -5 -2 -1 5 10
18 19 15 35 -10z m680 -9 c-10 -6 -7 -44 4 -55 11 -12 8 -24 -6 -24 -9 0 -14
17 -16 56 -2 48 0 54 12 42 8 -7 11 -16 6 -19z m1008 20 c-15 -9 -16 -13 -5
-26 6 -8 13 -22 14 -30 2 -12 0 -12 -13 -1 -13 10 -15 9 -11 -7 2 -13 11 -19
23 -18 12 1 14 0 6 -4 -10 -4 -10 -7 -1 -13 7 -5 2 -7 -14 -7 -14 0 -23 3 -21
7 7 11 -5 41 -14 36 -4 -3 -7 5 -8 17 0 12 1 16 4 10 6 -18 23 -16 23 1 0 22
-17 28 -39 14 -17 -10 -23 -10 -33 0 -11 11 -10 12 5 6 9 -3 24 -1 32 6 8 6
19 9 25 5 5 -3 10 -1 10 4 0 6 8 11 18 11 16 -1 16 -1 -1 -11z m183 2 c0 -5
-28 -7 -62 -5 -49 2 -64 -1 -75 -14 -15 -20 -17 -36 -3 -27 6 3 7 -1 4 -9 -3
-9 -10 -16 -16 -16 -5 0 -7 4 -3 9 3 5 -2 16 -10 24 -20 21 -19 27 6 22 17 -4
19 -2 9 10 -11 13 -1 15 69 15 44 0 81 -4 81 -9z m464 1 c-6 -4 -14 -14 -17
-22 -4 -10 -6 -8 -6 8 -1 15 5 22 17 22 10 0 13 -3 6 -8z m43 2 c-3 -3 -12 -4
-19 -1 -8 3 -5 6 6 6 11 1 17 -2 13 -5z m87 -3 c-8 -8 -74 -10 -74 -2 0 4 18
7 40 7 22 0 37 -2 34 -5z m39 2 c11 -11 -14 -33 -37 -32 -20 1 -19 2 24 15 13
5 13 6 0 14 -8 6 -10 10 -4 10 6 0 14 -3 17 -7z m-1963 -15 c0 -4 -4 -8 -9 -8
-6 0 -12 4 -15 8 -3 5 1 9 9 9 8 0 15 -4 15 -9z m208 3 c22 -2 12 -16 -12 -17
-14 -1 -27 4 -30 11 -3 8 2 12 12 10 9 -2 23 -4 30 -4z m-1061 -23 c-3 -8 -6
-5 -6 6 -1 11 2 17 5 13 3 -3 4 -12 1 -19z m739 -15 c1 -21 -1 -23 -10 -11 -6
8 -18 13 -26 11 -8 -2 -5 2 8 10 12 7 20 16 17 20 -3 4 -2 5 2 2 4 -3 8 -18 9
-32z m509 27 c-3 -5 -12 -10 -18 -10 -7 0 -6 4 3 10 19 12 23 12 15 0z m841
-2 c4 -7 3 -8 -4 -4 -7 4 -12 2 -12 -5 0 -7 -3 -10 -6 -6 -6 5 3 27 11 27 2 0
7 -5 11 -12z m60 -12 c-1 -16 -7 -23 -20 -22 -11 1 -21 7 -22 14 -1 7 0 8 3 2
8 -16 21 -12 28 10 8 27 13 25 11 -4z m529 14 c4 -6 -1 -7 -11 -3 -13 5 -15 3
-9 -7 5 -9 4 -11 -4 -6 -6 4 -9 12 -6 17 8 12 22 12 30 -1z m72 -7 c-10 -10
-47 -11 -53 -1 -4 6 -2 8 4 4 6 -3 13 -2 17 3 3 6 12 8 21 4 8 -3 13 -7 11
-10z m-1872 -3 c-3 -5 -12 -10 -18 -10 -7 0 -6 4 3 10 19 12 23 12 15 0z
m1635 -25 c-6 -8 -9 -18 -6 -23 3 -5 -1 -9 -9 -9 -8 0 -12 4 -9 9 3 4 -1 8 -8
9 -7 0 -3 4 10 9 12 5 22 17 23 27 0 11 3 13 6 5 3 -7 0 -19 -7 -27z m-1685
15 c3 -5 1 -10 -4 -10 -6 0 -11 5 -11 10 0 6 2 10 4 10 3 0 8 -4 11 -10z
m-1722 -16 c-2 -6 -13 -9 -24 -7 -30 8 -30 18 1 18 17 1 26 -4 23 -11z m1242
4 c4 -3 -10 -4 -31 -2 -20 2 -39 6 -42 8 -3 3 11 4 31 3 20 -2 39 -6 42 -9z
m118 -8 c-3 -12 -8 -19 -11 -16 -5 6 5 36 12 36 2 0 2 -9 -1 -20z m599 13
c-10 -4 -10 -8 0 -21 9 -13 7 -12 -9 1 -12 11 -26 16 -32 13 -5 -4 -12 -3 -15
2 -2 4 12 8 32 9 20 0 31 -2 24 -4z m863 -20 c1 -10 7 -17 12 -16 5 1 10 -5
10 -13 0 -17 -27 -19 -28 -1 0 6 -3 23 -5 36 -2 14 -2 22 2 19 3 -3 7 -14 9
-25z m726 10 c12 -16 12 -17 -2 -6 -9 7 -20 9 -24 5 -5 -4 -5 -1 -1 6 9 16 11
15 27 -5z m86 -1 c-10 -10 -14 -22 -10 -27 5 -4 2 -5 -5 -1 -11 6 -10 12 4 27
9 10 19 19 22 19 3 0 -2 -8 -11 -18z m70 12 c-3 -3 -12 -4 -19 -1 -8 3 -5 6 6
6 11 1 17 -2 13 -5z m-1931 -16 c4 -6 2 -14 -4 -16 -7 -2 -10 -8 -6 -13 3 -5
0 -9 -5 -9 -6 0 -11 6 -11 13 0 8 -4 7 -10 -3 -6 -9 -10 -11 -10 -3 0 7 -7 10
-15 7 -8 -4 -15 -2 -15 4 0 5 12 9 28 10 43 0 48 2 32 12 -9 6 -10 10 -3 10 6
0 15 -5 19 -12z m1814 2 c0 -5 -4 -10 -10 -10 -5 0 -10 5 -10 10 0 6 5 10 10
10 6 0 10 -4 10 -10z m84 -6 c3 -8 2 -12 -4 -9 -6 3 -10 10 -10 16 0 14 7 11
14 -7z m50 1 c-4 -8 -11 -12 -16 -9 -6 4 -5 10 3 15 19 12 19 11 13 -6z m65 1
c8 -10 9 -16 1 -21 -6 -3 -8 -10 -6 -14 3 -4 -6 -8 -19 -9 -27 -2 -42 13 -24
24 8 4 9 3 5 -4 -4 -7 -1 -12 9 -12 10 0 13 5 9 12 -4 6 -3 8 4 4 6 -3 13 -2
17 3 3 5 -3 14 -12 20 -10 6 -13 11 -7 11 6 0 17 -6 23 -14z m-2647 -3 c-6 -2
-9 -10 -6 -15 4 -7 2 -8 -5 -4 -13 9 -5 26 12 25 9 0 8 -2 -1 -6z m195 -13
c-1 -11 -7 -20 -14 -20 -11 0 -11 4 -1 20 7 11 14 20 15 20 1 0 1 -9 0 -20z
m63 -12 c0 -5 -7 -3 -15 6 -8 8 -15 18 -15 22 0 3 7 1 15 -6 8 -7 15 -17 15
-22z m1573 19 c-4 -6 1 -8 11 -4 9 4 15 3 12 -2 -3 -4 -20 -8 -38 -8 -18 0
-25 2 -15 4 9 3 15 8 13 12 -3 4 1 8 9 8 8 0 11 -5 8 -10z m-1788 -7 c3 -6 -1
-7 -9 -4 -10 4 -16 1 -16 -7 0 -7 -3 -10 -6 -6 -7 7 4 27 16 27 5 0 12 -4 15
-10z m1598 -5 c-3 -9 -8 -14 -10 -11 -3 3 -2 9 2 15 9 16 15 13 8 -4z m662 5
c-3 -5 -12 -10 -18 -10 -7 0 -6 4 3 10 19 12 23 12 15 0z m-2330 -21 c-4 -5
-12 -9 -18 -8 -9 0 -8 2 1 6 6 2 9 10 6 15 -4 7 -2 8 5 4 6 -4 9 -12 6 -17z
m1029 0 c-7 -11 -34 -12 -34 -1 0 14 11 21 26 15 8 -3 11 -9 8 -14z m1020 6
c-7 -16 -24 -21 -24 -6 0 8 7 13 27 20 1 1 0 -6 -3 -14z m86 5 c0 -5 -3 -9 -7
-8 -5 0 -16 -2 -25 -6 -9 -4 -25 -6 -35 -3 -12 3 -9 5 9 6 15 0 30 6 33 11 3
6 10 10 16 10 5 0 9 -4 9 -10z m321 -7 c13 -16 12 -17 -3 -4 -17 13 -22 21
-14 21 2 0 10 -8 17 -17z m-566 -3 c-3 -5 -14 -10 -23 -9 -14 0 -13 2 3 9 27
11 27 11 20 0z m75 0 c0 -5 -15 -9 -32 -9 l-33 1 30 8 c17 4 31 8 33 9 1 0 2
-3 2 -9z m285 0 c3 -5 1 -10 -4 -10 -6 0 -11 5 -11 10 0 6 2 10 4 10 3 0 8 -4
11 -10z m325 0 c0 -5 -5 -10 -11 -10 -5 0 -7 5 -4 10 3 6 8 10 11 10 2 0 4 -4
4 -10z m-247 -7 c-7 -2 -21 -2 -30 0 -10 3 -4 5 12 5 17 0 24 -2 18 -5z m204
1 c-3 -3 -12 -4 -19 -1 -8 3 -5 6 6 6 11 1 17 -2 13 -5z m-2940 -113 c-2 -22
-1 -44 2 -50 4 -6 30 -11 59 -12 34 -2 52 -7 52 -15 0 -6 7 -14 14 -17 12 -5
13 -13 6 -37 -5 -17 -5 -28 -1 -25 5 2 8 -14 7 -38 -1 -31 -6 -43 -19 -45 -16
-3 -22 -15 -18 -35 1 -5 -36 -7 -83 -5 l-84 3 -2 158 -1 157 36 0 c36 0 36 0
32 -39z m1662 -126 l2 -155 -31 0 -31 0 3 108 3 107 -28 3 c-24 3 -28 7 -25
30 2 18 8 26 18 24 8 -2 12 0 8 4 -14 13 14 34 47 34 l32 0 2 -155z m238 135
c3 -11 12 -20 19 -20 10 0 14 -14 14 -49 0 -46 -3 -51 -55 -99 -30 -28 -55
-53 -55 -56 0 -3 26 -6 57 -8 54 -3 58 -5 60 -29 l2 -27 -115 -1 -114 -2 0 30
c0 31 34 66 53 54 6 -3 7 -2 4 4 -6 10 27 43 44 43 5 0 8 4 5 8 -3 5 8 18 23
30 33 24 32 60 -1 81 -12 8 -17 8 -13 1 5 -7 -1 -9 -19 -4 -19 4 -26 2 -26 -9
0 -10 -12 -16 -35 -19 -32 -4 -35 -2 -35 23 0 15 7 29 15 33 8 3 15 12 15 21
0 12 14 15 76 15 67 0 76 -2 81 -20z m-897 -160 l0 -130 -90 0 c-71 0 -92 3
-96 15 -4 8 -12 15 -18 15 -9 0 -12 30 -12 110 l0 110 33 0 33 0 0 -83 c0 -46
-5 -88 -11 -94 -8 -8 1 -12 31 -15 22 -2 45 -1 50 2 5 3 10 49 11 103 l1 97
34 0 34 0 0 -130z m124 92 c12 -15 20 -31 18 -37 -2 -5 8 1 22 14 14 14 26 30
26 38 0 7 5 13 11 13 5 0 7 -6 3 -12 -4 -7 -4 -10 1 -6 4 4 15 2 24 -5 14 -11
14 -10 2 6 -12 15 -11 17 3 17 13 0 17 -7 14 -27 -2 -16 -8 -27 -15 -26 -8 2
-10 -4 -6 -14 5 -13 2 -15 -11 -10 -9 4 -15 3 -11 -2 3 -5 1 -12 -5 -16 -17
-11 -11 -35 15 -58 25 -22 49 -80 38 -91 -4 -3 -13 0 -21 7 -11 8 -14 9 -9 0
5 -8 0 -11 -13 -10 -11 1 -20 6 -20 13 0 6 -9 19 -19 28 -16 15 -22 15 -40 4
-12 -7 -24 -20 -26 -29 -3 -9 -17 -19 -30 -22 -28 -5 -31 2 -12 22 10 11 10
13 0 7 -27 -15 -11 30 23 67 l36 37 -36 36 c-24 24 -36 45 -36 64 0 26 3 28
26 24 15 -3 36 -17 48 -32z m-394 -2 c0 -30 0 -30 -59 -30 -43 0 -62 -5 -72
-17 -10 -11 -10 -14 -1 -9 6 4 12 2 12 -3 0 -6 20 -11 45 -11 33 0 45 -4 45
-15 0 -8 8 -15 18 -15 13 0 18 -9 20 -31 2 -22 -1 -28 -10 -23 -10 6 -10 5 -1
-7 9 -11 7 -19 -9 -39 l-21 -25 6 25 c7 27 -7 59 -20 47 -4 -5 -1 -12 7 -17
24 -15 4 -22 -34 -12 -26 8 -36 7 -36 -1 0 -8 -3 -8 -8 -2 -8 11 -37 13 -47 4
-3 -3 2 -12 12 -20 9 -8 14 -9 11 -4 -6 10 33 12 92 6 13 -1 13 -2 0 -11 -20
-13 -33 -13 -25 0 3 6 2 10 -4 10 -5 0 -13 -5 -16 -10 -4 -6 -10 -8 -15 -5 -5
3 -27 1 -49 -4 -32 -7 -41 -6 -41 4 0 8 5 17 10 20 8 5 8 11 0 20 -9 11 1 13
55 14 45 0 70 5 81 16 18 17 13 18 -63 15 -34 -1 -42 2 -48 19 -3 12 -11 19
-16 16 -5 -4 -9 14 -9 39 0 70 18 83 113 84 l77 1 0 -29z m626 13 c-4 -10 -4
-14 0 -10 4 4 17 -2 29 -13 l22 -21 26 30 c14 17 35 31 46 31 31 0 25 -53 -11
-86 -33 -33 -35 -45 -8 -69 11 -10 17 -22 14 -27 -3 -4 -2 -8 3 -7 25 4 33 -4
33 -37 0 -34 -1 -35 -32 -32 -24 2 -33 8 -32 20 1 10 -2 16 -6 13 -8 -5 -42
28 -38 36 2 2 -8 -7 -23 -21 -14 -14 -23 -31 -21 -37 3 -9 -7 -13 -28 -13 -30
0 -31 2 -28 33 2 20 13 41 31 55 19 17 27 32 25 52 -1 16 -7 28 -13 27 -5 -1
-8 5 -7 13 2 8 0 12 -4 8 -11 -12 -34 12 -34 34 0 18 2 19 18 7 14 -11 13 -10
-2 9 l-19 22 33 0 c26 0 31 -3 26 -17z m-1106 -77 l0 -73 40 0 40 0 0 72 0 72
34 1 35 1 0 -138 c1 -115 -2 -140 -14 -145 -8 -3 -15 -12 -15 -21 0 -12 -16
-15 -94 -15 l-94 0 7 28 c7 25 12 27 62 29 30 1 60 2 67 2 6 1 12 12 12 26 0
24 -3 25 -55 25 -34 0 -55 4 -55 11 0 7 -7 17 -16 24 -13 9 -17 31 -19 93 l-1
82 33 0 33 0 0 -74z m500 -326 c0 -5 -2 -10 -4 -10 -3 0 -8 5 -11 10 -3 6 -1
10 4 10 6 0 11 -4 11 -10z"/>
<path d="M3449 4578 c11 -15 41 -15 41 -1 0 3 -6 3 -14 0 -7 -3 -20 0 -27 6
-11 10 -11 9 0 -5z"/>
<path d="M3457 4479 c3 -10 11 -15 19 -12 20 7 17 20 -5 26 -14 3 -17 0 -14
-14z"/>
<path d="M1775 4489 c-3 -4 2 -6 10 -5 21 3 28 13 10 13 -9 0 -18 -4 -20 -8z"/>
<path d="M2027 4482 c12 -11 20 -22 18 -24 -3 -3 2 -5 10 -5 8 0 11 5 8 10 -4
6 1 8 11 4 11 -4 15 -3 11 4 -4 6 -13 8 -20 5 -7 -2 -23 2 -36 11 l-24 15 22
-20z"/>
<path d="M1648 4473 c7 -3 16 -2 19 1 4 3 -2 6 -13 5 -11 0 -14 -3 -6 -6z"/>
<path d="M2175 4450 c3 -5 8 -10 11 -10 2 0 4 5 4 10 0 6 -5 10 -11 10 -5 0
-7 -4 -4 -10z"/>
<path d="M2086 4432 c-2 -4 4 -8 14 -8 10 0 16 4 14 8 -3 4 -9 8 -14 8 -5 0
-11 -4 -14 -8z"/>
<path d="M3570 4431 c0 -6 4 -13 10 -16 6 -3 7 1 4 9 -7 18 -14 21 -14 7z"/>
<path d="M3623 4395 c-3 -9 -3 -19 1 -22 3 -4 6 1 6 10 0 11 5 14 17 10 11 -4
14 -3 9 5 -10 17 -26 15 -33 -3z"/>
<path d="M3620 4351 c0 -6 4 -13 10 -16 6 -3 7 1 4 9 -7 18 -14 21 -14 7z"/>
<path d="M3727 4136 c-13 -10 -15 -16 -6 -21 6 -4 15 -2 19 5 4 6 10 11 14 11
3 -1 6 2 7 6 1 13 -16 13 -34 -1z"/>
<path d="M1421 4426 c-8 -10 -9 -16 -1 -21 6 -4 9 -1 8 6 -2 6 3 14 11 17 9 3
11 0 6 -8 -5 -9 -4 -11 4 -6 12 8 6 26 -8 26 -5 0 -14 -6 -20 -14z"/>
<path d="M1470 4170 c-9 -6 -10 -10 -3 -10 6 0 15 5 18 10 8 12 4 12 -15 0z"/>
<path d="M1645 4131 c-3 -5 -2 -12 3 -15 5 -3 9 1 9 9 0 17 -3 19 -12 6z"/>
<path d="M2710 4082 c-22 -18 -22 -19 -4 -26 10 -4 15 -4 11 0 -4 4 0 16 10
26 21 23 12 23 -17 0z"/>
<path d="M2275 4163 c2 -10 4 -19 5 -20 2 -2 3 -7 4 -12 2 -17 16 -24 16 -8 0
9 -5 19 -10 22 -6 4 -8 10 -5 15 3 5 1 11 -4 14 -5 4 -8 -2 -6 -11z"/>
<path d="M2197 4094 c-8 -8 3 -34 15 -34 7 0 6 5 -1 13 -6 8 -8 17 -4 20 3 4
4 7 1 7 -2 0 -7 -3 -11 -6z"/>
<path d="M2261 4074 c0 -11 3 -14 6 -6 3 7 2 16 -1 19 -3 4 -6 -2 -5 -13z"/>
<path d="M2195 4040 c-3 -6 1 -7 9 -4 18 7 21 14 7 14 -6 0 -13 -4 -16 -10z"/>
<path d="M2215 4020 c-4 -6 -11 -7 -17 -4 -7 4 -8 2 -4 -5 6 -9 11 -9 22 0 14
11 18 19 10 19 -3 0 -8 -5 -11 -10z"/>
<path d="M2025 3680 c3 -5 8 -10 11 -10 2 0 4 5 4 10 0 6 -5 10 -11 10 -5 0
-7 -4 -4 -10z"/>
<path d="M2144 3389 c-4 -7 -3 -10 4 -5 6 3 15 -2 21 -11 5 -10 12 -15 15 -12
4 3 -2 14 -13 23 -14 13 -21 14 -27 5z"/>
<path d="M2024 3383 c4 -8 2 -13 -5 -13 -7 0 -4 -7 7 -16 10 -8 14 -13 9 -11
-9 5 -11 -17 -6 -54 1 -3 7 -6 14 -6 20 -1 80 -14 88 -19 4 -2 10 0 13 5 7 11
-22 23 -35 15 -5 -3 -9 -1 -9 4 0 5 -11 7 -24 5 -13 -3 -26 -1 -29 4 -3 4 11
7 31 7 49 -3 78 12 61 32 -10 13 -6 18 14 15 4 0 7 4 7 10 0 17 -72 0 -98 -24
-14 -13 -21 -16 -17 -6 3 8 18 22 33 31 l27 17 -30 -3 c-16 -2 -36 1 -44 8
-11 8 -13 8 -7 -1z m89 -46 c7 3 10 4 7 0 -3 -3 -9 -6 -15 -7 -5 -1 -19 -7
-30 -12 -20 -11 -20 -11 0 11 11 13 21 18 23 12 2 -6 9 -8 15 -4z"/>
<path d="M2255 3360 c-3 -5 1 -10 10 -10 9 0 13 5 10 10 -3 6 -8 10 -10 10 -2
0 -7 -4 -10 -10z"/>
<path d="M2155 3334 c15 -11 15 -14 -6 -24 -17 -10 -19 -14 -8 -21 19 -11 21
-49 3 -42 -8 3 -14 0 -14 -6 0 -6 5 -11 11 -11 5 0 8 -4 4 -9 -3 -5 -1 -12 5
-16 5 -3 10 1 10 10 0 8 7 18 15 21 13 5 13 9 3 21 -10 12 -9 18 7 29 16 12
16 14 3 14 -9 0 -19 -6 -21 -12 -3 -8 -6 -6 -6 5 -1 9 4 17 9 17 6 0 10 9 10
19 0 14 -6 19 -21 18 -18 -1 -19 -3 -4 -13z"/>
<path d="M2204 3332 c3 -5 0 -13 -6 -15 -9 -4 -10 -6 -1 -6 17 -1 25 16 12 25
-7 4 -9 3 -5 -4z"/>
<path d="M2226 3302 c-2 -4 4 -8 14 -8 10 0 16 4 14 8 -3 4 -9 8 -14 8 -5 0
-11 -4 -14 -8z"/>
<path d="M2050 3233 c-13 -15 -12 -16 4 -10 10 4 20 7 22 7 2 0 4 5 4 10 0 15
-13 12 -30 -7z"/>
<path d="M1037 2983 c-10 -9 -9 -23 1 -23 5 0 9 7 9 15 0 17 -1 18 -10 8z"/>
<path d="M1175 2879 c11 -13 21 -26 22 -28 2 -2 3 2 3 10 0 8 -10 20 -22 28
l-23 14 20 -24z"/>
<path d="M1090 2881 c0 -6 4 -13 10 -16 6 -3 7 1 4 9 -7 18 -14 21 -14 7z"/>
<path d="M1690 2705 c-11 -13 -10 -14 4 -9 9 3 16 10 16 15 0 13 -6 11 -20 -6z"/>
<path d="M891 2684 c0 -11 3 -14 6 -6 3 7 2 16 -1 19 -3 4 -6 -2 -5 -13z"/>
<path d="M1580 2449 c0 -5 5 -7 10 -4 6 3 10 8 10 11 0 2 -4 4 -10 4 -5 0 -10
-5 -10 -11z"/>
<path d="M1590 2340 c0 -5 7 -10 16 -10 8 0 12 5 9 10 -3 6 -10 10 -16 10 -5
0 -9 -4 -9 -10z"/>
<path d="M1148 2403 c6 -2 9 -10 6 -15 -4 -7 -2 -8 5 -4 13 9 5 26 -12 25 -9
0 -8 -2 1 -6z"/>
<path d="M1100 2390 c0 -13 18 -22 24 -11 3 5 -1 11 -9 15 -8 3 -15 1 -15 -4z"/>
<path d="M1750 2320 c-6 -11 -7 -20 -3 -20 4 0 3 -4 -4 -8 -8 -5 -9 -13 -3
-22 8 -13 10 -12 10 3 0 10 5 15 10 12 7 -4 6 -14 -1 -28 -10 -21 -10 -21 5
-3 18 23 20 36 6 36 -12 0 -9 22 4 31 4 4 3 9 -2 13 -6 4 -16 -3 -22 -14z"/>
<path d="M1787 2277 c-3 -8 0 -21 8 -27 19 -15 27 3 11 25 -11 16 -14 16 -19
2z"/>
<path d="M866 2246 c6 -15 4 -17 -6 -11 -9 6 -11 4 -5 -4 5 -9 10 -10 18 -2 8
8 7 14 -2 24 -10 10 -11 8 -5 -7z"/>
<path d="M2075 2220 c4 -6 11 -8 16 -5 14 9 11 15 -7 15 -8 0 -12 -5 -9 -10z"/>
<path d="M1035 2109 c-4 -6 -5 -12 -2 -15 2 -3 7 2 10 11 7 17 1 20 -8 4z"/>
<path d="M1545 1960 c-3 -5 -1 -10 4 -10 6 0 11 5 11 10 0 6 -2 10 -4 10 -3 0
-8 -4 -11 -10z"/>
<path d="M546 1698 c-3 -23 -7 -89 -8 -145 -1 -56 -6 -99 -10 -96 -5 3 -7 12
-3 21 3 9 3 13 -2 9 -4 -4 -15 -28 -24 -53 -15 -38 -15 -46 -3 -58 15 -16 19
-30 6 -22 -4 2 -8 -3 -8 -13 0 -10 6 -18 12 -18 16 0 15 44 -2 58 -13 11 -8
43 6 34 5 -3 6 3 3 13 -4 16 3 17 71 14 l76 -4 0 41 c0 31 3 40 13 35 9 -6 9
-4 -1 8 -9 12 -13 45 -11 108 1 50 -1 93 -4 96 -3 3 -27 8 -55 11 l-49 5 -7
-44z"/>
<path d="M485 1540 c-4 -6 -10 -8 -14 -6 -4 3 -8 -1 -8 -8 0 -11 4 -12 19 -3
10 7 18 15 18 19 0 11 -8 10 -15 -2z"/>
<path d="M515 1541 c-3 -5 -2 -12 3 -15 5 -3 9 1 9 9 0 17 -3 19 -12 6z"/>
<path d="M670 1539 c0 -5 5 -7 10 -4 6 3 10 8 10 11 0 2 -4 4 -10 4 -5 0 -10
-5 -10 -11z"/>
<path d="M733 1531 c-9 -15 -9 -23 3 -37 10 -14 14 -15 12 -4 -2 9 3 14 12 12
10 -1 9 2 -4 13 -18 14 -15 20 7 16 5 -1 6 3 2 9 -9 15 -19 12 -32 -9z"/>
<path d="M675 1489 c-4 -6 -5 -12 -2 -15 2 -3 7 2 10 11 7 17 1 20 -8 4z"/>
<path d="M713 1466 c1 -25 4 -32 13 -26 11 10 24 3 24 -12 0 -5 -4 -7 -9 -4
-5 4 -6 -4 -3 -16 6 -21 7 -21 10 -4 3 15 6 16 13 5 7 -12 9 -12 9 1 -1 8 -13
32 -29 53 l-29 37 1 -34z"/>
<path d="M761 1464 c0 -11 3 -14 6 -6 3 7 2 16 -1 19 -3 4 -6 -2 -5 -13z"/>
<path d="M450 1460 c0 -6 5 -8 11 -4 6 3 16 0 21 -7 8 -12 9 -11 5 1 -4 18
-37 27 -37 10z"/>
<path d="M447 1426 c-3 -8 0 -19 7 -25 9 -8 12 -4 12 14 0 27 -11 33 -19 11z"/>
<path d="M628 1423 c7 -3 16 -2 19 1 4 3 -2 6 -13 5 -11 0 -14 -3 -6 -6z"/>
<path d="M700 1406 c0 -2 7 -6 15 -10 8 -3 15 -1 15 4 0 6 -7 10 -15 10 -8 0
-15 -2 -15 -4z"/>
<path d="M973 1722 c-22 -3 -23 -8 -25 -90 0 -48 -2 -91 -3 -97 -2 -5 -4 -14
-5 -20 -1 -5 -2 -13 -1 -17 0 -5 -4 -8 -9 -8 -6 0 -10 7 -8 16 2 10 -3 18 -10
20 -7 1 -8 0 -3 -2 11 -6 3 -35 -13 -47 -6 -4 1 -5 17 -3 23 4 27 1 27 -18 0
-19 4 -22 25 -18 14 2 33 -2 42 -9 12 -10 14 -10 9 -1 -5 8 0 12 13 12 20 0
21 5 21 139 l0 139 -27 3 c-16 2 -38 3 -50 1z"/>
<path d="M857 1533 c3 -7 6 -13 8 -13 2 0 5 6 8 13 3 8 -1 14 -8 14 -7 0 -11
-6 -8 -14z"/>
<path d="M1080 1531 c7 -14 7 -22 -2 -27 -6 -4 -8 -3 -4 4 3 6 1 14 -5 17 -7
5 -10 1 -7 -9 1 -10 7 -16 12 -16 5 1 12 -3 15 -8 3 -5 15 2 26 17 17 24 17
25 1 11 -18 -14 -18 -13 -12 10 6 19 5 21 -3 10 -7 -10 -11 -11 -11 -2 0 6 -5
12 -10 12 -7 0 -7 -6 0 -19z"/>
<path d="M1037 1415 c-4 -9 -12 -13 -18 -9 -7 4 -9 3 -6 -3 4 -6 18 -10 32
-10 14 0 28 4 32 10 3 6 1 7 -5 3 -6 -3 -15 1 -20 10 -8 15 -10 15 -15 -1z"/>
<path d="M1087 1411 c3 -12 9 -21 14 -21 14 0 11 16 -5 29 -12 10 -13 8 -9 -8z"/>
<path d="M1129 1429 c-6 -31 -5 -37 7 -35 22 3 25 12 9 26 -8 7 -15 11 -16 9z"/>
<path d="M994 1393 c4 -22 -19 -40 -29 -23 -4 6 0 10 7 10 8 0 6 5 -5 11 -10
6 -21 8 -24 5 -4 -3 -1 -6 6 -6 7 0 10 -4 7 -9 -3 -5 1 -14 9 -21 8 -7 12 -17
9 -22 -4 -5 -15 3 -25 19 -16 24 -22 23 -18 -4 1 -5 5 -7 10 -5 5 1 9 -5 9
-13 0 -8 4 -15 9 -15 13 0 32 26 24 33 -3 4 -1 8 5 8 7 1 18 2 25 3 18 2 27
-16 15 -31 -7 -9 -7 -13 0 -13 6 0 14 9 17 20 4 11 11 18 16 15 5 -4 9 -2 9 4
0 6 7 8 15 5 8 -4 15 -1 15 5 0 7 -17 9 -46 7 -39 -3 -47 0 -55 18 -10 21 -10
21 -5 -1z"/>
<path d="M1315 1490 c-3 -5 -1 -10 4 -10 6 0 11 5 11 10 0 6 -2 10 -4 10 -3 0
-8 -4 -11 -10z"/>
<path d="M1240 1437 c0 -26 35 -53 46 -35 5 7 3 8 -6 3 -10 -6 -12 -4 -7 9 6
14 3 17 -9 12 -13 -5 -15 -2 -11 14 3 11 1 20 -4 20 -5 0 -9 -10 -9 -23z"/>
<path d="M1299 1458 c-5 -18 -6 -38 -1 -34 7 8 12 36 6 36 -2 0 -4 -1 -5 -2z"/>
<path d="M1321 1421 c0 -8 -8 -19 -16 -25 -13 -9 -11 -11 11 -13 14 0 31 -6
38 -13 8 -8 7 -10 -7 -4 -13 5 -16 2 -11 -10 4 -9 12 -15 18 -13 6 2 17 -3 24
-12 10 -12 14 -13 19 -3 4 9 8 10 18 2 11 -9 12 -7 8 9 -6 25 -7 25 -26 6 -13
-12 -16 -12 -20 6 -4 15 -2 19 9 15 9 -4 12 -2 8 5 -4 7 0 9 14 5 12 -4 23 -2
28 5 4 7 3 9 -3 6 -6 -4 -18 2 -28 13 -14 15 -21 17 -32 9 -7 -6 -13 -8 -13
-4 0 4 -6 2 -14 -4 -12 -10 -15 -8 -19 11 -2 13 -5 17 -6 9z m73 -33 c-3 -4
-11 -8 -19 -8 -8 0 -16 4 -19 8 -2 4 6 8 19 8 13 0 21 -4 19 -8z"/>
<path d="M1243 1376 c0 -9 4 -16 9 -16 5 0 6 -6 2 -12 -5 -9 -2 -9 9 1 9 7 17
19 16 25 0 6 -3 6 -6 -2 -4 -10 -8 -9 -17 4 -12 15 -13 15 -13 0z"/>
<path d="M1273 1335 c-10 -11 -9 -13 6 -12 11 1 17 7 14 14 -6 16 -5 16 -20
-2z"/>
<path d="M2038 1763 c-12 -3 -17 -17 -20 -52 -5 -76 -2 -81 48 -81 l44 0 1 38
c0 20 2 49 3 64 1 14 -2 25 -5 22 -4 -2 -18 0 -31 4 -12 5 -30 7 -40 5z"/>
<path d="M2090 1571 c0 -5 7 -12 16 -15 14 -5 15 -4 4 9 -14 17 -20 19 -20 6z"/>
<path d="M2028 1542 c-30 -6 -20 -19 12 -14 17 2 30 6 30 7 0 6 -26 11 -42 7z"/>
<path d="M2399 1723 c-6 -121 -7 -118 33 -121 42 -4 45 5 40 96 -4 52 -4 52
-38 52 -30 0 -34 -3 -35 -27z"/>
<path d="M3495 1551 c-3 -5 -2 -12 3 -15 5 -3 9 1 9 9 0 17 -3 19 -12 6z"/>
<path d="M3386 1522 c-3 -6 2 -9 12 -8 10 0 16 -6 16 -16 -1 -10 3 -15 8 -12
5 3 7 12 5 18 -3 7 1 13 8 13 8 0 13 -5 12 -10 -1 -5 3 -11 10 -14 6 -2 10 4
9 14 -2 13 -13 19 -38 21 -20 2 -39 -1 -42 -6z"/>
<path d="M3840 1675 l0 -65 43 3 42 3 3 62 3 62 -46 0 -45 0 0 -65z"/>
<path d="M3895 1580 c10 -11 20 -20 23 -20 3 0 -3 9 -13 20 -10 11 -20 20 -23
20 -3 0 3 -9 13 -20z"/>
<path d="M3989 1488 c-8 -26 -4 -34 19 -36 25 -2 25 -2 7 18 -17 19 -24 23
-26 18z"/>
<path d="M4383 1555 c0 -8 4 -12 9 -9 5 3 6 10 3 15 -9 13 -12 11 -12 -6z"/>
<path d="M4344 1430 c0 -15 4 -16 19 -8 19 10 16 20 -6 24 -7 1 -13 -7 -13
-16z"/>
<path d="M116 1462 c-3 -5 1 -9 9 -9 8 0 12 4 9 9 -3 4 -7 8 -9 8 -2 0 -6 -4
-9 -8z"/>
<path d="M290 1417 c0 -9 -6 -17 -12 -17 -7 0 -5 -5 5 -11 10 -6 21 -8 24 -5
4 3 0 6 -8 6 -12 0 -11 2 1 10 12 7 12 12 2 22 -9 9 -12 9 -12 -5z"/>
<path d="M250 1393 c0 -7 5 -15 12 -19 15 -10 -19 -35 -38 -27 -8 3 -14 -1
-14 -8 0 -7 3 -9 7 -6 3 4 12 2 20 -4 10 -9 13 -8 13 0 0 7 4 10 9 7 14 -9 38
3 38 19 0 8 -4 12 -8 9 -4 -2 -15 6 -23 18 -9 12 -16 17 -16 11z m30 -43 c0
-5 -5 -10 -11 -10 -5 0 -7 5 -4 10 3 6 8 10 11 10 2 0 4 -4 4 -10z"/>
<path d="M315 1360 c-3 -6 1 -7 9 -4 18 7 21 14 7 14 -6 0 -13 -4 -16 -10z"/>
<path d="M121 1344 c0 -11 3 -14 6 -6 3 7 2 16 -1 19 -3 4 -6 -2 -5 -13z"/>
<path d="M1965 1440 c-3 -5 -1 -10 4 -10 6 0 11 5 11 10 0 6 -2 10 -4 10 -3 0
-8 -4 -11 -10z"/>
<path d="M1300 1035 c0 -25 3 -45 8 -46 72 -8 72 -8 72 37 0 39 -2 42 -31 48
-48 9 -49 9 -49 -39z"/>
<path d="M1396 1012 c-3 -5 1 -9 9 -9 8 0 12 4 9 9 -3 4 -7 8 -9 8 -2 0 -6 -4
-9 -8z"/>
<path d="M2650 980 c0 -5 5 -10 11 -10 5 0 7 5 4 10 -3 6 -8 10 -11 10 -2 0
-4 -4 -4 -10z"/>
<path d="M2624 959 c-3 -6 -3 -13 0 -16 3 -4 6 -1 6 6 0 7 4 10 10 6 5 -3 7
-13 4 -23 -5 -14 -4 -15 5 -2 6 8 11 18 11 21 0 12 -29 18 -36 8z"/>
<path d="M1683 905 c0 -8 4 -12 9 -9 5 3 6 10 3 15 -9 13 -12 11 -12 -6z"/>
<path d="M1520 870 c-8 -5 -10 -10 -5 -10 6 0 17 5 25 10 8 5 11 10 5 10 -5 0
-17 -5 -25 -10z"/>
<path d="M3405 3679 c-44 -34 -99 -79 -122 -102 l-43 -41 0 -102 0 -102 113
-106 c61 -58 119 -106 127 -106 8 0 67 43 131 94 130 106 129 105 129 251 l0
62 -111 104 c-61 57 -119 105 -128 106 -9 2 -52 -25 -96 -58z m174 -98 c45
-40 81 -77 81 -81 0 -17 -32 -19 -58 -4 l-27 16 25 -21 c16 -13 21 -24 15 -28
-6 -5 -38 -27 -70 -50 -102 -71 -122 -91 -105 -102 10 -7 17 -6 22 2 5 8 8 7
8 -5 0 -18 -33 -33 -52 -23 -7 4 -4 -1 7 -10 11 -9 20 -20 20 -25 0 -4 4 -12
9 -17 5 -4 7 -3 3 2 -3 6 -2 17 4 25 6 11 9 5 9 -20 l0 -35 -85 87 c-47 48
-85 94 -85 103 0 8 12 21 26 27 22 11 28 10 40 -7 13 -17 14 -18 14 -1 0 10
-9 20 -20 23 -19 5 -25 16 -21 37 1 5 -5 6 -12 3 -10 -4 -14 2 -14 16 0 15 27
45 86 94 47 40 89 72 93 70 3 -1 43 -35 87 -76z m-249 -138 c0 -7 -6 -13 -13
-13 -8 0 -14 6 -14 13 0 8 6 14 14 14 7 0 13 -6 13 -14z"/>
<path d="M3408 3395 c2 -14 9 -22 15 -18 6 3 7 1 3 -5 -4 -7 -2 -12 5 -12 8 0
8 -5 -2 -17 -11 -14 -9 -14 9 1 l22 19 -27 29 c-15 15 -28 28 -28 28 -1 0 0
-11 3 -25z"/>
<path d="M3315 3399 c-4 -6 -4 -13 -1 -16 3 -4 6 -1 6 5 0 6 7 9 15 6 8 -4 15
-1 15 5 0 14 -27 14 -35 0z"/>
<path d="M3385 3391 c-3 -5 -1 -12 5 -16 5 -3 10 -11 10 -17 0 -6 -8 -4 -18 5
-15 14 -19 15 -19 2 0 -8 4 -12 9 -9 4 3 8 -1 8 -8 0 -22 22 -45 50 -53 24 -7
24 -7 5 8 -11 8 -23 13 -27 11 -5 -3 -8 2 -8 10 0 8 5 18 11 21 7 5 5 13 -5
24 -9 10 -13 21 -9 24 3 4 4 7 0 7 -3 0 -8 -4 -12 -9z"/>
<path d="M3335 3360 c3 -5 8 -10 11 -10 2 0 4 5 4 10 0 6 -5 10 -11 10 -5 0
-7 -4 -4 -10z"/>
</g>
</svg>
